<svg width="86" height="52" viewBox="0 0 86 52" fill="none" xmlns="http://www.w3.org/2000/svg">
<path d="M20.869 0.519998C8.125 0.519998 0.421 7.792 0.421 19.024C0.421 32.056 8.629 37.168 20.149 37.168C21.085 37.168 21.949 37.096 22.813 36.952L13.309 52H25.693L35.197 36.376C38.365 31.192 41.317 25.504 41.317 19.384C41.317 8.512 34.909 0.519998 20.869 0.519998ZM12.013 19.024C12.013 13.768 15.109 10.672 20.869 10.672C26.629 10.672 29.725 13.768 29.725 19.024C29.725 24.208 26.629 27.304 20.869 27.304C15.109 27.304 12.013 24.208 12.013 19.024ZM65.3065 0.519998C52.5625 0.519998 44.8585 7.792 44.8585 19.024C44.8585 32.056 53.0665 37.168 64.5865 37.168C65.5225 37.168 66.3865 37.096 67.2505 36.952L57.7465 52H70.1305L79.6345 36.376C82.8025 31.192 85.7545 25.504 85.7545 19.384C85.7545 8.512 79.3465 0.519998 65.3065 0.519998ZM56.4505 19.024C56.4505 13.768 59.5465 10.672 65.3065 10.672C71.0665 10.672 74.1625 13.768 74.1625 19.024C74.1625 24.208 71.0665 27.304 65.3065 27.304C59.5465 27.304 56.4505 24.208 56.4505 19.024Z" fill="#CB2E2A"/>
</svg>
