<svg width="39" height="50" viewBox="0 0 39 50" fill="none" xmlns="http://www.w3.org/2000/svg">
<path d="M37.9425 3.42651C37.9425 3.21289 37.7929 3.02674 37.5824 2.98402L30.9237 1.55891C30.6887 1.51008 30.4568 1.64741 30.3897 1.87628L28.9707 6.75889C28.9218 6.92368 28.7631 7.03049 28.5922 7.00913L24.8876 6.58495C24.7472 6.56969 24.6282 6.46899 24.5885 6.33166L22.9437 0.60985C22.8887 0.414545 22.7087 0.280273 22.5042 0.280273L15.989 0.298584C15.7845 0.298584 15.6075 0.435907 15.5526 0.631212L13.9383 6.36218C13.8986 6.4995 13.7827 6.60021 13.6423 6.61547L9.94066 7.05795C9.76977 7.07931 9.61108 6.97251 9.56226 6.80772L8.11578 1.93426C8.04865 1.70539 7.81367 1.56806 7.58175 1.61994L0.932237 3.08167C0.721674 3.12745 0.575195 3.3136 0.575195 3.52721L0.599609 13.5854C0.599609 13.7593 0.660642 13.9272 0.773552 14.0584L4.67659 18.6297C4.93293 18.9319 5.07636 19.3133 5.08246 19.71C5.10687 22.0842 5.17401 22.9234 5.18927 28.8344C5.22283 41.2088 18.3693 45.716 19.3702 46.0395C20.3681 45.7099 33.4932 41.1355 33.4596 28.7581C33.4443 22.8441 33.5054 22.0049 33.5176 19.6337C33.5176 19.237 33.661 18.8556 33.9174 18.5504L37.796 13.9577C37.9089 13.8265 37.9699 13.6556 37.9699 13.4847L37.9394 3.42651H37.9425Z" fill="white"/>
<path d="M32.8586 28.7613C32.8769 36.2378 26.8316 42.3167 19.3551 42.3381C11.8786 42.3564 5.79972 36.3111 5.77836 28.8346C5.76005 21.3581 11.8053 15.2792 19.2818 15.2579C26.7583 15.2395 32.8372 21.2848 32.8586 28.7613" fill="white"/>
<path d="M19.355 42.4571C11.8235 42.4784 5.67755 36.366 5.65924 28.8315C5.63787 21.3001 11.7503 15.1541 19.2848 15.1358C26.8162 15.1144 32.9622 21.2269 32.9805 28.7613C33.0019 36.2928 26.8895 42.4388 19.355 42.4571ZM19.2848 15.3769C11.8846 15.3952 5.88201 21.4313 5.90031 28.8315C5.91862 36.2317 11.9548 42.2343 19.355 42.216C26.7552 42.1977 32.7577 36.1616 32.7394 28.7613C32.7211 21.3611 26.685 15.3586 19.2848 15.3769V15.3769Z" fill="#010101"/>
<path d="M8.94536 20.1123C6.97095 22.4712 5.78387 25.5137 5.79302 28.8339C5.79302 29.3221 5.82049 29.8043 5.87236 30.2803L9.83949 25.889L8.94536 20.1123V20.1123Z" fill="#020303"/>
<path d="M7.7832 35.8682C9.68132 38.9625 12.7879 41.2329 16.4407 42.0294L13.5447 36.866L7.7832 35.8682V35.8682Z" fill="#020303"/>
<path d="M32.8 30.2073C32.8488 29.7313 32.8733 29.2491 32.8733 28.7609C32.8641 25.4438 31.6618 22.4074 29.6751 20.0576L28.8115 25.8405L32.8 30.2104V30.2073Z" fill="#020303"/>
<path d="M30.918 35.8076L25.1596 36.836L22.291 42.0146C25.9408 41.1999 29.0351 38.9111 30.918 35.8076Z" fill="#020303"/>
<path d="M9.25192 25.553L9.18359 25.7715L14.2629 27.3603L14.3313 27.1419L9.25192 25.553Z" fill="#010101"/>
<path d="M16.0753 33.1044L13.0293 37.3076L13.2146 37.4419L16.2606 33.2387L16.0753 33.1044Z" fill="#010101"/>
<path d="M29.3708 25.5037L24.2998 27.1191L24.3693 27.3372L29.4402 25.7218L29.3708 25.5037Z" fill="#010101"/>
<path d="M22.4778 32.9177L22.293 33.0527L25.4703 37.4019L25.6551 37.2669L22.4778 32.9177Z" fill="#010101"/>
<path d="M15.4704 34.2667L13.0596 26.9214L19.3032 22.3623L25.5682 26.8879L23.1971 34.2454L15.4704 34.2667Z" fill="#020303"/>
<path d="M19.3031 22.5173L25.4186 26.9361L23.1054 34.1196L15.5587 34.141L13.209 26.9697L19.3031 22.5173ZM19.3031 22.2061L19.1566 22.3129L13.0625 26.7652L12.916 26.872L12.974 27.0459L15.3238 34.2173L15.3817 34.3912H15.5648L23.1115 34.3699H23.2946L23.3496 34.1959L25.6627 27.0124L25.7176 26.8384L25.5681 26.7316L19.4526 22.3129L19.3031 22.2061V22.2061Z" fill="#010101"/>
<path d="M15.5587 34.1413L13.209 26.9699L19.3031 22.5176L25.4186 26.9363L23.1054 34.1199L15.5587 34.1413Z" fill="#C7C6C6"/>
<path fill-rule="evenodd" clip-rule="evenodd" d="M21.6652 27.0399C20.527 27.9249 19.9502 29.1577 19.999 30.9185C19.1903 30.1129 16.1906 28.4925 15.8335 29.3713C15.2232 28.1202 16.1143 26.8995 17.5638 26.2373C17.6432 26.4906 18.0704 26.4357 18.2199 26.3563C18.342 26.5638 18.7692 26.6218 18.9828 26.5089C19.1079 26.6706 19.9044 26.7622 20.0906 26.7469C20.2035 26.9331 20.6795 27.0063 20.9542 26.8843C21.0244 27.1253 21.6652 27.0368 21.6652 27.0368" fill="white"/>
<path d="M20.0197 30.9675L19.9861 30.9339C19.3178 30.2717 17.0291 28.9778 16.1533 29.1548C16.0007 29.1853 15.9 29.2616 15.8512 29.3776L15.8359 29.4172L15.8176 29.3776C15.5887 28.9076 15.5582 28.4254 15.7291 27.9524C15.9732 27.2689 16.6415 26.6372 17.5601 26.2191L17.5814 26.21L17.5875 26.2313C17.6059 26.2954 17.6516 26.3412 17.7218 26.3686C17.8775 26.4327 18.1155 26.3931 18.2162 26.3381L18.2314 26.329L18.2406 26.3442C18.3566 26.5426 18.7716 26.6006 18.976 26.4907L18.9913 26.4816L19.0005 26.4938C19.1164 26.6433 19.8976 26.7379 20.0899 26.7257H20.1021L20.1082 26.7348C20.215 26.9118 20.6788 26.982 20.9474 26.863L20.9688 26.8539L20.9749 26.8752C21.0389 27.098 21.6554 27.0156 21.6645 27.0156L21.7378 27.0064L21.6798 27.0522C20.5171 27.9555 19.9739 29.2189 20.0227 30.9156V30.9644L20.0197 30.9675ZM16.3364 29.0968C16.8857 29.0968 17.6913 29.4538 18.1552 29.6827C18.8906 30.0489 19.6138 30.5219 19.98 30.8698C19.9434 29.2097 20.4744 27.9646 21.6004 27.0644C21.4357 27.0797 21.0267 27.0949 20.9443 26.9088C20.6575 27.0217 20.2058 26.9485 20.0807 26.7654C19.8885 26.7745 19.1378 26.6921 18.9791 26.5304C18.7594 26.6372 18.3535 26.5792 18.2162 26.3778C18.1002 26.4297 17.8622 26.4693 17.7035 26.4022C17.6303 26.3717 17.5814 26.3229 17.554 26.2588C16.6568 26.6738 16.0037 27.2933 15.7627 27.9616C15.6009 28.4132 15.6253 28.871 15.8329 29.3196C15.8908 29.2097 15.9946 29.1395 16.1441 29.109C16.2021 29.0968 16.2662 29.0907 16.3364 29.0907V29.0968Z" fill="#010101"/>
<path fill-rule="evenodd" clip-rule="evenodd" d="M19.3459 26.2338L16.1143 29.5204L16.1387 29.6821C17.2281 28.4767 18.3175 27.369 19.407 26.2246L19.3459 26.2368V26.2338Z" fill="#020303"/>
<path fill-rule="evenodd" clip-rule="evenodd" d="M19.413 26.4395L16.3003 29.9946L16.2881 30.1197L19.4343 26.4913L19.413 26.4395Z" fill="#020303"/>
<path fill-rule="evenodd" clip-rule="evenodd" d="M19.3578 26.6191L16.4404 30.2384L16.5137 30.2689L19.3578 26.6954V26.6191Z" fill="#020303"/>
<path fill-rule="evenodd" clip-rule="evenodd" d="M18.3877 30.8422C18.4121 30.8178 19.3245 26.5303 19.3245 26.5303H19.3612L18.4884 30.8666L18.3877 30.8422Z" fill="#020303"/>
<path fill-rule="evenodd" clip-rule="evenodd" d="M19.3452 26.6191L18.8203 30.9158H18.8966L19.3696 26.6313L19.3452 26.6191Z" fill="#020303"/>
<path fill-rule="evenodd" clip-rule="evenodd" d="M19.385 26.7041C19.266 28.1811 19.2172 29.4963 19.0371 30.9367H19.1103C19.2568 29.4841 19.3148 28.1689 19.4216 26.7041H19.385Z" fill="#020303"/>
<path fill-rule="evenodd" clip-rule="evenodd" d="M19.4468 27.04L21.8393 30.6227L21.7782 30.6959L19.4102 27.0767L19.4468 27.04Z" fill="#020303"/>
<path fill-rule="evenodd" clip-rule="evenodd" d="M19.4468 27.4365L21.3937 30.5461L21.3174 30.598L19.4102 27.4884L19.4468 27.4365Z" fill="#020303"/>
<path fill-rule="evenodd" clip-rule="evenodd" d="M19.4492 27.9092L21.1917 30.7472L21.091 30.7716L19.4248 27.958L19.4492 27.9092Z" fill="#020303"/>
<path fill-rule="evenodd" clip-rule="evenodd" d="M15.0394 29.1177C15.1432 29.255 15.2866 29.2886 15.3812 29.3435C15.4941 29.2947 15.4209 29.3252 15.4788 29.3221C15.43 29.2733 15.4911 29.1207 15.4636 29.0566C15.3202 29.1421 15.1554 29.1268 15.0547 29.0933C15.0394 29.0872 15.0272 29.1055 15.0364 29.1177" fill="#DE0A1D"/>
<path d="M15.3849 29.3529C15.3849 29.3529 15.3818 29.3529 15.3788 29.3529C15.3544 29.3407 15.33 29.3285 15.2995 29.3163C15.214 29.2797 15.1103 29.2308 15.034 29.1271C15.034 29.1271 15.0279 29.1057 15.034 29.0966C15.0401 29.0874 15.0523 29.0844 15.0645 29.0874C15.1164 29.1027 15.2964 29.1515 15.4642 29.0508C15.4642 29.0508 15.4703 29.0508 15.4734 29.0508C15.4734 29.0508 15.4795 29.0508 15.4795 29.0569C15.4917 29.0874 15.4856 29.1301 15.4795 29.1789C15.4734 29.2369 15.4642 29.2949 15.4917 29.3193C15.4917 29.3193 15.4948 29.3254 15.4917 29.3285C15.4917 29.3346 15.4826 29.3346 15.4764 29.3346C15.4612 29.3346 15.4551 29.3346 15.449 29.3285C15.4429 29.3285 15.4307 29.3346 15.4124 29.3437L15.3849 29.3559C15.3849 29.3559 15.3849 29.3559 15.3818 29.3559L15.3849 29.3529ZM15.0492 29.1118C15.1255 29.2125 15.2232 29.2552 15.3086 29.2949C15.3361 29.3071 15.3605 29.3193 15.3849 29.3315L15.4063 29.3224C15.4551 29.301 15.4551 29.301 15.4612 29.3102C15.4459 29.2766 15.452 29.2217 15.4581 29.1728C15.4612 29.1362 15.4673 29.0996 15.4612 29.0721C15.2903 29.1667 15.1103 29.121 15.0553 29.1027C15.0492 29.1027 15.0492 29.1027 15.0492 29.1027C15.0492 29.1027 15.0492 29.1057 15.0492 29.1118Z" fill="#010101"/>
<path fill-rule="evenodd" clip-rule="evenodd" d="M21.6858 29.4936V29.6309V29.7926C21.225 29.6065 21.1395 29.9666 21.1914 30.0917C21.2738 30.3389 21.5973 30.2107 21.5027 29.991C21.4844 29.9452 21.4966 29.933 21.5088 29.9513C21.8201 30.4731 20.1752 30.8637 19.4154 30.8637C18.2985 30.879 17.1907 30.3175 16.2966 29.7499C16.2966 29.7499 16.5682 29.5668 16.5621 29.4966C16.556 29.4264 16.2447 29.6217 16.2356 29.5576C16.2295 29.4997 16.5133 29.3623 16.5072 29.3105C16.5072 29.2708 16.1532 29.3257 16.1471 29.2891C16.141 29.2494 16.5041 29.0724 16.495 29.0389C16.4797 28.99 16.1562 29.0724 16.1379 29.0389C16.1227 29.0053 16.4736 28.6818 16.4492 28.6391C16.4248 28.5994 16.022 28.8253 15.9945 28.7825C15.9792 28.7612 16.3149 28.3675 16.2997 28.3461C16.2722 28.3095 15.8907 28.6299 15.8633 28.6025C15.8389 28.575 16.202 28.0929 16.1806 28.0746C16.1684 28.0623 15.7565 28.3889 15.6924 28.4011C15.4269 28.4591 15.2041 28.514 15.1797 28.7551C15.5581 28.987 15.4666 29.0999 15.552 29.4508C15.6649 29.4997 15.552 29.576 15.4788 29.6492C15.5276 29.6736 15.5825 29.7011 15.6954 29.5882C15.6741 29.7011 15.6771 29.7102 15.5306 29.8109C15.7198 29.8231 15.732 29.7896 15.8205 29.7224C15.7656 30.464 14.9508 30.5525 15.0088 31.9196C15.4208 32.414 18.0086 32.7588 19.4245 32.7405C21.1243 32.71 23.0804 32.3072 23.5625 31.8952C24.1454 30.4731 23.6877 30.1222 23.4252 29.7865L23.4618 29.4386H23.1902C23.0895 29.3898 21.6949 29.4295 21.6888 29.4936" fill="#DE0A1D"/>
<path d="M19.3489 32.7615C17.878 32.7646 15.4001 32.4197 14.9943 31.9315L14.9882 31.9254V31.9162C14.9546 31.0953 15.2292 30.7322 15.4734 30.4118C15.6259 30.2104 15.7633 30.0334 15.7968 29.7679C15.7327 29.8198 15.69 29.8381 15.5344 29.8289L15.4673 29.8228L15.5222 29.7862C15.6259 29.716 15.6504 29.6977 15.6656 29.6458C15.5832 29.7068 15.5313 29.6916 15.4764 29.6641L15.4489 29.6489L15.4703 29.6275C15.4703 29.6275 15.4947 29.6031 15.51 29.5909C15.5466 29.5573 15.5893 29.5176 15.5863 29.4932C15.5863 29.4841 15.5741 29.4749 15.5527 29.4658H15.5435V29.4505C15.5222 29.3651 15.513 29.2949 15.5039 29.2338C15.4764 29.0385 15.4612 28.9409 15.1804 28.7669L15.1682 28.7608V28.7456C15.1987 28.4831 15.4428 28.4313 15.7022 28.3733C15.7328 28.3672 15.8914 28.2512 15.9982 28.1749C16.1935 28.0315 16.1935 28.0346 16.2119 28.0529C16.2332 28.0742 16.2241 28.0895 16.0715 28.3153C16.0166 28.3946 15.9433 28.5076 15.9128 28.5625C15.9525 28.5381 16.0196 28.4923 16.0715 28.4557C16.2576 28.3245 16.3065 28.297 16.3309 28.3275C16.3461 28.3489 16.34 28.3641 16.1783 28.5716C16.1295 28.6357 16.0654 28.7181 16.041 28.7578C16.0837 28.7486 16.1722 28.709 16.2332 28.6815C16.4041 28.6083 16.4621 28.5869 16.4804 28.6205C16.4987 28.651 16.4621 28.7029 16.3065 28.8707C16.2607 28.9195 16.2027 28.9836 16.1813 29.0141C16.2119 29.0141 16.2698 29.008 16.3095 29.0019C16.4468 28.9836 16.5201 28.9775 16.5323 29.0202C16.5414 29.0507 16.5079 29.0752 16.3522 29.1698C16.3004 29.2003 16.2271 29.243 16.1966 29.2705C16.2302 29.2735 16.2943 29.2705 16.34 29.2705C16.4835 29.2644 16.5414 29.2613 16.5445 29.304C16.5445 29.3406 16.4957 29.3773 16.4041 29.4414C16.3614 29.4719 16.2912 29.5207 16.2759 29.5451C16.3004 29.5451 16.3614 29.5176 16.4011 29.5024C16.4926 29.4658 16.5506 29.4444 16.5811 29.4627C16.5903 29.4688 16.5994 29.481 16.5994 29.4932C16.6055 29.5634 16.4377 29.6885 16.3522 29.7496C17.106 30.2256 18.229 30.8451 19.3947 30.8421C19.4069 30.8421 19.4191 30.8421 19.4313 30.8421C20.1057 30.8421 21.2989 30.5583 21.5095 30.189C21.5095 30.189 21.5095 30.186 21.5095 30.1829C21.4668 30.2287 21.3996 30.2531 21.3355 30.2409C21.2654 30.2287 21.2074 30.1737 21.1799 30.0944C21.1494 30.0181 21.1677 29.8808 21.2532 29.7953C21.3172 29.7313 21.4454 29.6733 21.6743 29.7557V29.4902C21.6743 29.4902 21.6773 29.4719 21.6926 29.4658C21.7963 29.4078 23.0628 29.3681 23.2031 29.4169H23.4961L23.4595 29.7801C23.4808 29.8075 23.5022 29.832 23.5236 29.8594C23.7952 30.186 24.1308 30.5918 23.5938 31.901L23.5877 31.9101C23.0994 32.3251 21.1189 32.731 19.4344 32.7615C19.41 32.7615 19.3825 32.7615 19.3581 32.7615H19.3489ZM15.0339 31.9071C15.4337 32.3679 17.8903 32.7188 19.352 32.7158C19.3764 32.7158 19.4039 32.7158 19.4283 32.7158C21.1006 32.6883 23.0567 32.2885 23.548 31.8796C24.0729 30.5979 23.7463 30.2043 23.4839 29.8869C23.4595 29.8564 23.4351 29.8289 23.4137 29.7984L23.4076 29.7923L23.4412 29.4597H23.1818C23.0902 29.4139 21.8299 29.4505 21.714 29.5024V29.8228L21.6834 29.8106C21.5034 29.7374 21.363 29.7435 21.2806 29.8289C21.2043 29.9052 21.1952 30.0242 21.2196 30.0822C21.2409 30.1493 21.2837 30.189 21.3386 30.2012C21.3905 30.2104 21.4454 30.189 21.4759 30.1493C21.5064 30.1097 21.5125 30.0578 21.4881 30.0029C21.4668 29.954 21.479 29.9327 21.4912 29.9266C21.5034 29.9205 21.5186 29.9205 21.5339 29.9418C21.5888 30.0334 21.5919 30.1249 21.54 30.2165C21.4027 30.4575 20.9114 30.6254 20.6306 30.7047C20.2278 30.8176 19.7548 30.8909 19.4222 30.8909C19.41 30.8909 19.3978 30.8909 19.3856 30.8909C18.1954 30.8939 17.0511 30.2561 16.2912 29.774L16.2607 29.7557L16.2912 29.7374C16.4133 29.655 16.5414 29.5482 16.5475 29.5085C16.5231 29.5085 16.456 29.536 16.4133 29.5512C16.3217 29.5878 16.2698 29.6092 16.2393 29.5909C16.2302 29.5848 16.2241 29.5756 16.221 29.5634C16.2149 29.5207 16.2759 29.478 16.3736 29.4108C16.4133 29.3834 16.4682 29.3437 16.4896 29.3223C16.459 29.3193 16.3889 29.3223 16.34 29.3223C16.1905 29.3284 16.1417 29.3284 16.1356 29.2918C16.1295 29.2613 16.1691 29.2338 16.3248 29.1392C16.3736 29.1087 16.4438 29.0691 16.4712 29.0446C16.4377 29.0416 16.3614 29.0507 16.3095 29.0568C16.1813 29.0721 16.1386 29.0752 16.1264 29.0477C16.1142 29.0202 16.1325 28.9958 16.2698 28.8463C16.3248 28.7853 16.4072 28.6968 16.4316 28.6571C16.3919 28.6662 16.3095 28.7029 16.2485 28.7273C16.0715 28.8036 16.0074 28.828 15.986 28.7944C15.9708 28.773 15.9799 28.7547 16.1386 28.5472C16.1813 28.4923 16.2332 28.4221 16.2637 28.3794C16.218 28.4069 16.1447 28.4557 16.0928 28.4923C15.9189 28.6144 15.8792 28.6388 15.8548 28.6113C15.8335 28.5869 15.8487 28.5564 16.0288 28.2909C16.0654 28.236 16.1081 28.1749 16.1356 28.1292C16.102 28.1536 16.0593 28.1841 16.0196 28.2146C15.8548 28.3336 15.745 28.413 15.7083 28.4191C15.4612 28.474 15.2445 28.5228 15.214 28.7395C15.5008 28.9195 15.5161 29.0294 15.5466 29.2308C15.5558 29.2888 15.5649 29.3559 15.5832 29.4322C15.6137 29.4475 15.629 29.4658 15.632 29.4902C15.6412 29.536 15.5924 29.5817 15.5405 29.6275L15.5283 29.6397C15.5649 29.6519 15.6107 29.6489 15.687 29.5695L15.7389 29.5176L15.7205 29.6092C15.7022 29.7007 15.6931 29.7252 15.6046 29.7923H15.6107C15.7022 29.7923 15.7297 29.7709 15.7785 29.7313C15.7877 29.7221 15.7999 29.716 15.8121 29.7068L15.8518 29.6763V29.7252C15.8243 30.0334 15.6717 30.2317 15.513 30.4453C15.275 30.7566 15.0065 31.1137 15.037 31.9132L15.0339 31.9071Z" fill="#010101"/>
<path fill-rule="evenodd" clip-rule="evenodd" d="M16.5713 30.5828C16.5713 30.5828 16.5713 30.5584 16.5804 30.5645C17.4532 31.0528 17.8591 31.1504 18.979 31.1657C20.2699 31.184 21.4112 30.6988 22.0001 30.3051C22.0124 30.299 22.0215 30.3143 22.0124 30.3204C21.1426 31.0192 20.276 31.3732 18.8875 31.3366C17.499 31.3 17.264 31.0284 16.5713 30.5828Z" fill="white"/>
<path fill-rule="evenodd" clip-rule="evenodd" d="M17.1548 31.3583C17.7224 31.5658 18.8637 31.6818 19.8188 31.5811C20.539 31.5048 21.2806 31.3186 21.8634 30.87C22.0038 30.7541 22.1259 30.6198 22.2174 30.4703C22.2266 30.455 22.2479 30.4703 22.2388 30.4825C22.013 30.928 21.5491 31.2271 21.0975 31.4163C20.0324 31.8771 18.8148 31.9198 17.6979 31.636C17.1883 31.4865 16.5627 31.3247 16.1264 30.693C16.1141 30.6747 16.1386 30.6564 16.1538 30.6717C16.3735 30.8944 16.6512 31.1721 17.1578 31.3583" fill="white"/>
<path fill-rule="evenodd" clip-rule="evenodd" d="M16.5049 31.5689C16.9504 31.8222 17.9483 32.0449 18.7662 32.0693C19.7579 32.0785 20.7741 31.9412 21.6683 31.4926C22.0711 31.221 22.4251 30.7846 22.5441 30.4245C22.5532 30.4001 22.5868 30.4093 22.5838 30.4337C22.5197 30.8121 22.0955 31.456 21.3082 31.8039C19.9441 32.3898 18.3694 32.4081 16.9779 31.9137C16.5171 31.7276 15.9037 31.5078 15.7511 30.6931C15.7481 30.6686 15.7878 30.6656 15.7908 30.6931C15.8518 31.0593 16.1112 31.3522 16.5049 31.5719" fill="white"/>
<path fill-rule="evenodd" clip-rule="evenodd" d="M22.663 31.0187C22.8522 30.7379 22.8888 30.326 22.8766 30.2466C22.8736 30.2253 22.9041 30.2161 22.9132 30.2344C22.9651 30.3504 23.0231 30.7715 22.8217 31.0858C22.6569 31.3422 22.2632 31.571 22.0435 31.6077C22.0221 31.6107 22.013 31.5832 22.0313 31.571C22.1961 31.4825 22.4738 31.2994 22.663 31.0187Z" fill="white"/>
<path fill-rule="evenodd" clip-rule="evenodd" d="M23.0107 31.2417C23.1969 31.0311 23.2793 30.6222 23.0931 30.1126C23.087 30.0973 23.1084 30.0882 23.1175 30.1004C23.3098 30.4147 23.4624 30.6771 23.319 31.0616C23.1725 31.4462 22.8246 31.5896 22.4828 31.5987C22.4676 31.5987 22.4645 31.5774 22.4798 31.5743C22.7147 31.495 22.8521 31.4126 23.0138 31.2417" fill="white"/>
<path fill-rule="evenodd" clip-rule="evenodd" d="M15.5554 29.0546C15.4577 28.8135 15.2014 28.7372 15.2014 28.7372C15.2014 28.7372 15.1465 28.6976 15.0458 28.7647C14.9451 28.8318 14.8779 28.96 14.8779 28.96C14.8779 28.96 15.1678 28.9539 15.2807 29.0119C15.4242 29.0821 15.4516 29.1553 15.4242 29.2316C15.4059 29.3109 15.3448 29.3231 15.2869 29.3231C15.1922 29.3231 15.1251 29.3048 15.0183 29.2835C15.0397 29.4269 15.2685 29.5398 15.357 29.5276C15.4455 29.5154 15.5127 29.4696 15.5462 29.4361C15.5798 29.4025 15.8697 29.2194 15.8239 29.1553C15.7599 29.1278 15.592 29.1553 15.5493 29.0515" fill="white"/>
<path d="M15.3478 29.5425C15.244 29.5425 15.0273 29.4265 15.009 29.2861V29.2678L15.0243 29.2709C15.0487 29.2739 15.0701 29.28 15.0914 29.2831C15.1616 29.2983 15.2165 29.3075 15.2867 29.3075C15.3417 29.3075 15.3935 29.2983 15.4118 29.2251C15.4302 29.1671 15.4302 29.0969 15.2745 29.0176C15.1647 28.9627 14.8778 28.9688 14.8778 28.9688H14.8564L14.8656 28.9505C14.8656 28.9444 14.9358 28.8192 15.0395 28.7491C15.1372 28.685 15.1982 28.7155 15.2074 28.7216C15.2318 28.7307 15.4698 28.8101 15.5675 29.0481C15.5949 29.1122 15.6773 29.1214 15.7506 29.1305C15.7841 29.1336 15.8147 29.1366 15.836 29.1458H15.8391V29.1488C15.8787 29.2037 15.7567 29.3014 15.6163 29.4021C15.5888 29.4204 15.5675 29.4387 15.5583 29.4448C15.54 29.4631 15.4698 29.5242 15.36 29.5394C15.3539 29.5394 15.3508 29.5394 15.3447 29.5394L15.3478 29.5425ZM15.0365 29.2983C15.0701 29.4174 15.2562 29.515 15.3447 29.515C15.3478 29.515 15.3539 29.515 15.3569 29.515C15.4607 29.5028 15.5217 29.4448 15.54 29.4296C15.5492 29.4204 15.5705 29.4052 15.598 29.3838C15.6621 29.335 15.833 29.2098 15.8147 29.1671C15.7963 29.161 15.7689 29.158 15.7414 29.1549C15.6651 29.1458 15.5705 29.1366 15.54 29.0573C15.4454 28.8253 15.1982 28.746 15.1952 28.746H15.1921C15.1921 28.746 15.1402 28.7094 15.0517 28.7704C14.9785 28.8192 14.9205 28.9047 14.8992 28.9444C14.9694 28.9444 15.1891 28.9474 15.2867 28.9962C15.421 29.0634 15.4668 29.1366 15.4363 29.2312C15.4149 29.3197 15.3447 29.3319 15.2867 29.3319C15.2135 29.3319 15.1525 29.3197 15.0853 29.3075C15.0701 29.3044 15.0518 29.3014 15.0365 29.2983Z" fill="#010101"/>
<path fill-rule="evenodd" clip-rule="evenodd" d="M21.6711 28.9412C21.5857 29.0327 21.6864 29.6675 21.6864 29.6675L23.4349 29.6614C23.4349 29.6614 23.7096 28.694 23.6058 28.5628C23.5021 28.4316 22.6934 28.4682 22.5896 28.5628C22.4859 28.6604 22.6476 28.7916 22.5896 28.8954C22.5317 28.9992 21.7566 28.8466 21.6711 28.9381" fill="#DE0A1D"/>
<path d="M23.4536 29.6826L21.6684 29.6887V29.6704C21.647 29.5636 21.5677 29.0204 21.6562 28.9258C21.7019 28.877 21.8637 28.8831 22.1261 28.9014C22.294 28.9136 22.5503 28.9288 22.5717 28.8892C22.593 28.8495 22.5778 28.8037 22.5595 28.7549C22.535 28.6878 22.5076 28.6145 22.5747 28.5504C22.651 28.4772 23.0325 28.4436 23.3102 28.4619C23.4811 28.4742 23.5879 28.5047 23.6245 28.5504C23.7343 28.6847 23.4872 29.5666 23.4597 29.6673L23.4536 29.6826ZM21.7081 29.6429H23.42C23.5238 29.2676 23.658 28.6664 23.5909 28.5779C23.5787 28.5627 23.5238 28.5199 23.3071 28.5077C23.0264 28.4894 22.6663 28.5291 22.6052 28.584C22.5625 28.6237 22.5747 28.6695 22.5991 28.7396C22.6174 28.7946 22.6419 28.8556 22.6083 28.9105C22.5747 28.9746 22.4008 28.9655 22.12 28.9472C21.9522 28.935 21.7203 28.9197 21.6867 28.9563C21.6318 29.0143 21.6684 29.4019 21.705 29.6429H21.7081Z" fill="#010101"/>
<path fill-rule="evenodd" clip-rule="evenodd" d="M23.014 29.002C23.0476 29.002 23.0751 29.0294 23.0751 29.063V29.4261C23.0751 29.4597 23.0476 29.4872 23.0171 29.4872C22.9866 29.4872 22.9561 29.4597 22.9561 29.4261V29.063C22.9561 29.0294 22.9835 29.002 23.014 29.002Z" fill="white"/>
<path fill-rule="evenodd" clip-rule="evenodd" d="M22.4554 29.0635C22.489 29.0635 22.5165 29.0909 22.5165 29.1245V29.4877C22.5165 29.5212 22.489 29.5487 22.4585 29.5487C22.428 29.5487 22.3975 29.5212 22.3975 29.4877V29.1245C22.3975 29.0909 22.4249 29.0635 22.4554 29.0635Z" fill="white"/>
<path fill-rule="evenodd" clip-rule="evenodd" d="M22.7269 29.0264C22.7605 29.0264 22.788 29.0538 22.788 29.0874V29.4505C22.788 29.4841 22.7605 29.5116 22.73 29.5116C22.6995 29.5116 22.6689 29.4841 22.6689 29.4505V29.0874C22.6689 29.0538 22.6934 29.0264 22.7269 29.0264Z" fill="white"/>
<path fill-rule="evenodd" clip-rule="evenodd" d="M15.7139 28.7527C15.7139 28.8046 15.6528 28.8442 15.5796 28.8442C15.5063 28.8442 15.4453 28.8046 15.4453 28.7527C15.4453 28.7008 15.5063 28.6611 15.5796 28.6611C15.6528 28.6611 15.7139 28.7008 15.7139 28.7527Z" fill="#EBEBEB"/>
<path fill-rule="evenodd" clip-rule="evenodd" d="M21.0852 31.5413C20.5023 31.5565 20.008 32.0539 19.422 32.0539C18.9765 32.0417 18.6012 31.645 18.1556 31.6359C17.646 31.6237 17.2005 32.0234 16.6908 32.0234C16.1934 32.0356 15.7357 31.6542 15.226 31.6786C14.9544 31.6786 14.7317 31.9654 14.4326 31.9288L14.4387 34.1626C14.4387 34.66 14.8507 35.0537 15.3481 35.0537L18.6012 35.0445C18.7507 35.0445 19.2115 35.3283 19.4342 36.0089C19.6448 35.3253 20.1148 35.0384 20.2521 35.0384L23.5173 35.0293C24.0148 35.0293 24.4084 34.6295 24.4084 34.1321L24.4023 31.8983C24.4023 31.8983 23.9934 31.6511 23.7554 31.6267C23.3098 31.5901 22.8734 31.9258 22.4279 31.9044C21.9702 31.8922 21.546 31.5352 21.0852 31.5352" fill="white"/>
<path d="M19.4341 36.158L19.3914 36.0268C19.1747 35.3676 18.7353 35.0899 18.598 35.0899L15.3449 35.0991C14.8201 35.0991 14.3928 34.681 14.3928 34.1653L14.3867 31.8827L14.4355 31.8888C14.582 31.9071 14.7102 31.84 14.8445 31.7667C14.9635 31.7026 15.0855 31.6385 15.2229 31.6385C15.4884 31.6233 15.7447 31.7209 15.9919 31.8155C16.2299 31.904 16.4496 31.9895 16.6877 31.9834C16.9318 31.9834 17.1668 31.8857 17.3926 31.7911C17.6337 31.6904 17.8839 31.5867 18.1524 31.5928C18.3844 31.5989 18.598 31.7057 18.8055 31.8064C19.013 31.9101 19.2083 32.0047 19.4219 32.0108C19.7057 32.0108 19.9651 31.8888 20.2428 31.7576C20.5083 31.6324 20.7829 31.5043 21.082 31.4951C21.3231 31.4951 21.5581 31.5897 21.7808 31.6813C21.9914 31.7667 22.2081 31.8583 22.4247 31.8613C22.6353 31.8705 22.852 31.7972 23.0625 31.724C23.2883 31.6446 23.5203 31.5653 23.7552 31.5836C23.9994 31.608 24.4022 31.8522 24.4205 31.8613L24.4419 31.8735L24.448 34.1317C24.448 34.6475 24.0299 35.0716 23.5142 35.0716L20.2489 35.0808C20.1299 35.0808 19.6752 35.3646 19.4738 36.0207L19.4341 36.1519V36.158ZM14.4752 31.9773L14.4813 34.1653C14.4813 34.6322 14.8689 35.0137 15.3449 35.0137L18.598 35.0045C18.7506 35.0045 19.1839 35.2578 19.4311 35.8803C19.663 35.2639 20.1024 34.9984 20.2489 34.9984L23.5142 34.9892C23.9811 34.9892 24.3625 34.6047 24.3625 34.1378L24.3564 31.9284C24.271 31.8796 23.9444 31.6965 23.7491 31.6752C23.5325 31.6569 23.3189 31.7331 23.093 31.8094C22.8764 31.8857 22.6505 31.962 22.4247 31.9498C22.1928 31.9437 21.967 31.8522 21.7503 31.7606C21.5245 31.666 21.3109 31.5806 21.0851 31.5806C20.8074 31.5867 20.5388 31.7118 20.2825 31.8338C20.0109 31.962 19.7271 32.0932 19.425 32.0932C19.19 32.0871 18.9764 31.9803 18.7719 31.8796C18.5644 31.7759 18.3691 31.6813 18.1555 31.6752C17.9053 31.6691 17.6764 31.7637 17.4323 31.8644C17.1973 31.962 16.9531 32.0627 16.6938 32.0627C16.4435 32.0719 16.1994 31.9773 15.9644 31.8888C15.7264 31.8003 15.4792 31.7057 15.229 31.7179C15.11 31.7179 15.0031 31.7759 14.8872 31.8369C14.759 31.904 14.6339 31.9773 14.4752 31.9712V31.9773Z" fill="#010101"/>
<path d="M19.4342 32.4907C19.1993 32.4846 18.9887 32.3778 18.7812 32.2771C18.5737 32.1733 18.3784 32.0787 18.1648 32.0726C17.9115 32.0665 17.6857 32.1611 17.4415 32.2649C17.2004 32.3656 16.9502 32.4632 16.6786 32.4632C16.4375 32.4632 16.2026 32.3747 15.9737 32.2893C15.7357 32.2008 15.4885 32.1062 15.2382 32.1184C15.1131 32.1184 15.0002 32.1794 14.8782 32.2405C14.7408 32.3107 14.6005 32.3839 14.4326 32.3839V32.2984C14.5791 32.2984 14.7134 32.2313 14.8385 32.1642C14.9636 32.1001 15.0918 32.033 15.2352 32.033C15.5007 32.0177 15.757 32.1153 16.0012 32.21C16.2392 32.2984 16.465 32.3839 16.6969 32.3778C16.9411 32.3778 17.176 32.2801 17.4049 32.1855C17.646 32.0848 17.8993 31.9841 18.1648 31.9872C18.3967 31.9933 18.6103 32.1001 18.8148 32.2008C19.0223 32.3046 19.2176 32.3992 19.4312 32.4053C19.715 32.4053 19.9774 32.2832 20.2521 32.152C20.5176 32.0269 20.7922 31.8987 21.0913 31.8926C21.3354 31.8926 21.5673 31.9872 21.7901 32.0787C22.0007 32.1642 22.2173 32.2557 22.434 32.2588C22.6446 32.271 22.8612 32.1947 23.0718 32.1215C23.2946 32.0421 23.5265 31.9628 23.7645 31.9811C23.8927 31.9933 24.0025 32.0604 24.1124 32.1276C24.2131 32.1886 24.3077 32.2466 24.3962 32.2466V32.332C24.2833 32.332 24.1795 32.2679 24.0666 32.2008C23.9659 32.1398 23.8622 32.0787 23.7554 32.0665C23.5387 32.0482 23.3251 32.1245 23.0993 32.2008C22.8826 32.2771 22.6598 32.3564 22.4309 32.3412C22.199 32.3351 21.9732 32.2435 21.7565 32.155C21.5307 32.0604 21.3171 31.975 21.0913 31.975C20.8136 31.9811 20.545 32.1062 20.2887 32.2283C20.0171 32.3564 19.7364 32.4876 19.4312 32.4876L19.4342 32.4907Z" fill="#010101"/>
<path d="M19.4342 32.9693C19.1993 32.9632 18.9887 32.8564 18.7812 32.7557C18.5737 32.652 18.3784 32.5574 18.1648 32.5513C17.9115 32.5452 17.6857 32.6398 17.4415 32.7435C17.2066 32.8412 16.9624 32.9419 16.703 32.9419C16.4467 32.948 16.2178 32.8595 15.992 32.771C15.757 32.6794 15.5129 32.5848 15.2382 32.597C15.1131 32.597 15.0002 32.6581 14.8782 32.7252C14.7408 32.7984 14.6005 32.8747 14.4326 32.8747V32.7893C14.5791 32.7893 14.7103 32.7191 14.8385 32.6489C14.9636 32.5818 15.0918 32.5116 15.2352 32.5116C15.5282 32.4963 15.7784 32.594 16.0225 32.6886C16.2483 32.7771 16.4589 32.8595 16.7 32.8534C16.9441 32.8534 17.1791 32.7557 17.408 32.6611C17.649 32.5604 17.9023 32.4597 18.1678 32.4628C18.3997 32.4689 18.6134 32.5757 18.8178 32.6764C19.0253 32.7801 19.2206 32.8747 19.4342 32.8808C19.718 32.8808 19.9805 32.7588 20.2551 32.6276C20.5206 32.5024 20.7953 32.3743 21.0943 32.3682C21.3385 32.3682 21.5704 32.4628 21.7932 32.5543C22.0037 32.6398 22.2204 32.7313 22.4371 32.7344C22.6507 32.7466 22.8643 32.6703 23.0748 32.597C23.2976 32.5177 23.5326 32.4384 23.7676 32.4567C23.8957 32.4689 24.0086 32.536 24.1155 32.6031C24.2162 32.6642 24.3108 32.7222 24.3993 32.7222V32.8076C24.2863 32.8076 24.1826 32.7435 24.0697 32.6764C23.969 32.6153 23.8652 32.5543 23.7584 32.5421C23.5417 32.5238 23.3281 32.6001 23.1023 32.6764C22.8856 32.7527 22.6598 32.832 22.434 32.8168C22.2021 32.8107 21.9763 32.7191 21.7596 32.6306C21.5338 32.536 21.3202 32.4475 21.0943 32.4506C20.8166 32.4567 20.5481 32.5818 20.2918 32.7038C20.0202 32.832 19.7394 32.9632 19.4342 32.9632V32.9693Z" fill="#010101"/>
<path fill-rule="evenodd" clip-rule="evenodd" d="M19.9098 30.7109C19.9098 30.7109 19.5283 33.2163 19.5039 33.3506C19.4703 33.5429 19.7358 33.4513 19.745 33.3659C19.7541 33.2804 19.9586 30.7231 19.9586 30.7231L19.9098 30.7109Z" fill="#DE0A1D"/>
<path d="M19.587 33.473C19.5626 33.473 19.5413 33.4669 19.526 33.4547C19.5077 33.4395 19.4894 33.412 19.4985 33.351C19.5199 33.2197 19.8983 30.7357 19.9044 30.7113V30.7021L19.9715 30.7174V30.7235C19.9715 30.7479 19.7671 33.2808 19.7579 33.3662C19.7549 33.3998 19.7182 33.4334 19.6664 33.4547C19.642 33.4639 19.6145 33.473 19.587 33.473ZM19.9197 30.7235C19.8952 30.8913 19.5382 33.2259 19.5168 33.354C19.5107 33.3967 19.5168 33.4242 19.5382 33.4425C19.5626 33.4639 19.6114 33.4639 19.6603 33.4425C19.706 33.4242 19.7366 33.3937 19.7396 33.3693C19.7488 33.2869 19.941 30.8883 19.9532 30.7357L19.9197 30.7266V30.7235Z" fill="white"/>
<path fill-rule="evenodd" clip-rule="evenodd" d="M18.1738 30.5431C18.1738 30.5431 16.1048 33.0637 16.0774 33.0973C16.053 33.1309 16.0194 33.1767 16.0713 33.2163C16.1445 33.2713 16.3215 33.2194 16.4192 33.0821L18.2105 30.5645L18.1738 30.54V30.5431Z" fill="#DE0A1D"/>
<path d="M16.151 33.2503C16.1174 33.2503 16.0899 33.2411 16.0686 33.2258C16.0503 33.2136 16.0411 33.1984 16.0381 33.1801C16.032 33.1465 16.0564 33.116 16.0747 33.0946C16.0991 33.0611 18.0857 30.6411 18.1712 30.5374L18.1773 30.5312L18.2291 30.5648L18.223 30.5709L16.4317 33.0885C16.3737 33.1709 16.2791 33.2289 16.1906 33.2442C16.1784 33.2442 16.1662 33.2442 16.1571 33.2442L16.151 33.2503ZM18.1773 30.5557C18.0644 30.693 16.1113 33.0702 16.0869 33.1038C16.0716 33.1251 16.0503 33.1526 16.0564 33.177C16.0564 33.1892 16.0655 33.2014 16.0808 33.2106C16.1052 33.2289 16.1418 33.235 16.1845 33.2289C16.2517 33.2197 16.3463 33.174 16.4165 33.0794L18.2017 30.5709L18.1773 30.5557Z" fill="white"/>
<path fill-rule="evenodd" clip-rule="evenodd" d="M18.729 30.6749C18.729 30.6749 17.1483 33.2322 17.1269 33.2627C17.0934 33.3176 17.1178 33.3512 17.1636 33.3634C17.2185 33.3787 17.365 33.3634 17.4291 33.2505L18.7626 30.6963L18.726 30.6719L18.729 30.6749Z" fill="#DE0A1D"/>
<path d="M17.2094 33.3781C17.1911 33.3781 17.1758 33.3781 17.1636 33.372C17.1362 33.3628 17.1148 33.3506 17.1087 33.3292C17.0995 33.3079 17.1056 33.2865 17.124 33.259C17.1423 33.2285 18.7078 30.6957 18.7261 30.6713L18.7322 30.6621L18.784 30.6957V30.7018L17.4474 33.256C17.3925 33.3506 17.2857 33.3781 17.2155 33.3781H17.2094ZM18.7322 30.6865C18.6376 30.8422 17.1545 33.2377 17.1362 33.2682C17.1209 33.2896 17.1179 33.3079 17.124 33.3231C17.1301 33.3414 17.1514 33.3506 17.1667 33.3567C17.2155 33.372 17.3589 33.3567 17.423 33.2499L18.7535 30.7048L18.7291 30.6896L18.7322 30.6865Z" fill="white"/>
<path fill-rule="evenodd" clip-rule="evenodd" d="M20.4932 30.583C20.4932 30.583 20.6396 33.1983 20.6457 33.3142C20.6518 33.4302 20.8868 33.4821 20.8838 33.3447C20.8838 33.2654 20.5389 30.5891 20.5389 30.5891L20.4932 30.583Z" fill="#DE0A1D"/>
<path d="M20.7947 33.4336C20.7214 33.4336 20.639 33.3848 20.636 33.3146C20.6299 33.2017 20.4865 30.6108 20.4834 30.5834V30.5742L20.5444 30.5834V30.5895C20.5597 30.6993 20.8893 33.2658 20.8923 33.3451C20.8923 33.4 20.8588 33.4336 20.8008 33.4367C20.8008 33.4367 20.8008 33.4367 20.7977 33.4367L20.7947 33.4336ZM20.5017 30.5925C20.5109 30.7756 20.6482 33.2017 20.6543 33.3115C20.6543 33.3726 20.7306 33.4153 20.7947 33.4153H20.7977C20.8221 33.4153 20.874 33.4061 20.874 33.3421C20.874 33.2658 20.5475 30.7451 20.5292 30.5956H20.5017V30.5925Z" fill="white"/>
<path fill-rule="evenodd" clip-rule="evenodd" d="M21.0488 30.3906L21.6195 33.2134C21.647 33.3599 21.8758 33.3232 21.8545 33.2378C21.8331 33.1524 21.0854 30.3906 21.0854 30.3906H21.0488Z" fill="#DE0A1D"/>
<path d="M21.7531 33.3206C21.7348 33.3206 21.7165 33.3206 21.6982 33.3114C21.6524 33.2961 21.6219 33.2595 21.6128 33.2138L21.0391 30.3818H21.094V30.3879C21.1001 30.4154 21.8416 33.1527 21.863 33.2351C21.8691 33.2565 21.863 33.2748 21.8447 33.29C21.8233 33.3114 21.7867 33.3206 21.7501 33.3206H21.7531ZM21.0604 30.3971L21.628 33.2107C21.6372 33.2626 21.6738 33.287 21.7013 33.2961C21.7531 33.3145 21.8081 33.2992 21.8325 33.2778C21.8447 33.2656 21.8508 33.2534 21.8447 33.2412C21.8264 33.1588 21.1184 30.5497 21.0787 30.4001H21.0574L21.0604 30.3971Z" fill="white"/>
<path fill-rule="evenodd" clip-rule="evenodd" d="M19.2696 30.7754C19.2696 30.7754 18.2748 33.2503 18.2534 33.2991C18.2259 33.3662 18.2137 33.4303 18.2717 33.4486C18.3297 33.4669 18.467 33.4364 18.4975 33.354C18.528 33.2716 19.3062 30.7876 19.3062 30.7876L19.2696 30.7754Z" fill="#DE0A1D"/>
<path d="M18.3142 33.4603C18.2989 33.4603 18.2837 33.4603 18.2715 33.4542C18.2501 33.4481 18.2379 33.4359 18.2288 33.4176C18.2166 33.3902 18.2227 33.3474 18.2471 33.2925C18.2684 33.2437 19.2541 30.7932 19.2633 30.7688V30.7627L19.3182 30.781V30.7902C19.309 30.8146 18.5339 33.2772 18.5065 33.3566C18.482 33.4268 18.3813 33.4634 18.3142 33.4634V33.4603ZM19.2755 30.7841C19.2144 30.9366 18.2837 33.2528 18.2623 33.3017C18.241 33.3535 18.2349 33.3902 18.244 33.4146C18.2501 33.4268 18.2593 33.4359 18.2745 33.442C18.3295 33.4603 18.4607 33.4298 18.4881 33.3535C18.5156 33.2742 19.245 30.9549 19.2938 30.7963L19.2724 30.7902L19.2755 30.7841Z" fill="white"/>
<path fill-rule="evenodd" clip-rule="evenodd" d="M16.7153 29.8932C16.8739 29.5636 17.0662 29.6185 17.2676 29.5728C17.7375 29.3103 17.0662 28.8892 17.1028 28.5444C17.1425 28.2636 17.3591 28.0897 17.4019 27.7326C17.4446 27.3786 17.2615 27.1925 17.3653 26.9697C17.5789 27.0948 17.9023 27.6228 17.7376 28.1416C17.8657 28.1416 18.0061 27.7326 17.9512 27.3268C18.3326 27.6655 18.3357 28.0866 17.9695 28.5108C18.1221 28.5169 18.3479 28.3369 18.4486 28.0409C18.6927 28.3247 18.354 28.6207 18.1953 28.9167C18.357 28.9441 18.5188 28.7183 18.5188 28.7183C18.6012 29.1578 18.1465 29.3469 17.9176 29.6369C18.1434 29.5758 18.3265 29.4416 18.5401 29.3561C18.4821 29.4843 18.2533 29.8962 17.762 30.0305C17.8138 30.1099 17.9298 30.1007 18.0122 30.1007C17.942 30.2594 17.9542 30.47 17.6124 30.354C17.5392 30.3631 17.4293 30.3387 17.2951 30.4181C17.3591 30.5066 17.4965 30.4913 17.4965 30.4913C17.4354 30.5584 17.3805 30.7019 17.0265 30.5523C17.0357 30.5951 17.0509 30.6683 17.1455 30.7324C16.9716 30.83 16.8251 30.827 16.7275 30.5096C16.6512 30.5523 16.5901 30.6317 16.6512 30.7415C16.2789 30.7843 16.4223 30.4333 16.4467 30.3021C16.3216 30.3601 16.0012 30.3418 16.2026 30.0031C16.1354 29.6491 16.5108 29.6521 16.7122 29.8993" fill="#DE0A1D"/>
<path d="M16.9745 30.8027C16.947 30.8027 16.9226 30.7966 16.9012 30.7874C16.8249 30.7569 16.7639 30.6745 16.7181 30.5342C16.6662 30.5708 16.6266 30.6318 16.6754 30.7203L16.6907 30.7508H16.6571C16.5472 30.7661 16.4709 30.7478 16.4252 30.6959C16.3489 30.6074 16.3885 30.4518 16.416 30.348C16.416 30.3419 16.4191 30.3358 16.4221 30.3297C16.3397 30.3541 16.2207 30.3511 16.1597 30.2839C16.12 30.2412 16.0925 30.1527 16.1871 29.991C16.1658 29.8567 16.2024 29.756 16.2939 29.7163C16.413 29.6614 16.593 29.7194 16.7151 29.8506C16.8432 29.6065 16.9958 29.5851 17.1453 29.5668C17.185 29.5607 17.2247 29.5576 17.2613 29.5485C17.3437 29.5027 17.3925 29.4478 17.4078 29.3867C17.4383 29.2677 17.3498 29.1274 17.2552 28.9778C17.1637 28.8344 17.0691 28.6818 17.0813 28.5414C17.0996 28.4072 17.1576 28.2973 17.2186 28.1813C17.2888 28.0501 17.359 27.9159 17.3803 27.7328C17.4017 27.568 17.3712 27.4429 17.3437 27.3299C17.3132 27.2018 17.2857 27.0889 17.3437 26.9637L17.3529 26.9424L17.3742 26.9546C17.5878 27.0767 17.9083 27.5893 17.7709 28.1081C17.7801 28.102 17.7862 28.0959 17.7953 28.0867C17.893 27.9738 17.9723 27.6534 17.9266 27.333L17.9174 27.272L17.9632 27.3116C18.3416 27.6473 18.3599 28.0623 18.0181 28.4835C18.1585 28.4529 18.3385 28.2821 18.4209 28.0318L18.4331 27.9952L18.4606 28.0257C18.659 28.2546 18.4972 28.4926 18.3416 28.7184C18.3019 28.7764 18.2622 28.8344 18.2287 28.8924C18.3629 28.8832 18.4942 28.7032 18.4972 28.7001L18.5277 28.6574L18.5369 28.7093C18.5979 29.0328 18.3782 29.225 18.1676 29.4112C18.1036 29.4661 18.0395 29.5241 17.9815 29.5851C18.0852 29.5485 18.1829 29.4966 18.2775 29.4478C18.3568 29.4051 18.4392 29.3623 18.5247 29.3288L18.5766 29.3074L18.5521 29.3593C18.5125 29.4478 18.2958 29.8842 17.7953 30.0367C17.8381 30.0703 17.9083 30.0734 17.9693 30.0734C17.9815 30.0734 17.9937 30.0734 18.0059 30.0734H18.0395L18.0242 30.1069C18.012 30.1344 18.0029 30.1649 17.9906 30.1924C17.9662 30.2687 17.9388 30.3511 17.8625 30.3846C17.8014 30.4151 17.716 30.409 17.597 30.3694C17.5787 30.3694 17.5604 30.3694 17.539 30.3694C17.478 30.3694 17.4047 30.3694 17.3193 30.4151C17.3803 30.4701 17.481 30.4579 17.481 30.4579L17.5421 30.4518L17.4993 30.4975C17.4993 30.4975 17.4871 30.5128 17.478 30.522C17.423 30.5921 17.3376 30.6959 17.0446 30.5799C17.0568 30.6166 17.0813 30.6593 17.1423 30.702L17.1728 30.7234L17.1392 30.7417C17.0691 30.7813 17.008 30.7997 16.9561 30.7997L16.9745 30.8027ZM16.7425 30.467L16.7517 30.4945C16.7944 30.6379 16.8493 30.7203 16.9165 30.7478C16.9653 30.7691 17.0263 30.76 17.1057 30.7203C17.0294 30.6562 17.0141 30.586 17.008 30.5494L16.9989 30.5067L17.0385 30.525C17.3162 30.644 17.3956 30.5738 17.4505 30.5097C17.3986 30.5067 17.3254 30.4914 17.2796 30.4274L17.2644 30.406L17.2857 30.3938C17.3895 30.3297 17.4841 30.3297 17.5543 30.3297C17.5756 30.3297 17.5939 30.3297 17.6122 30.3297H17.6183H17.6245C17.7313 30.3663 17.8075 30.3724 17.8594 30.348C17.9174 30.3205 17.9388 30.2534 17.9632 30.1802C17.9693 30.1619 17.9754 30.1405 17.9845 30.1222C17.9021 30.1222 17.8014 30.1222 17.7496 30.0398L17.7313 30.0123L17.7618 30.0032C18.1982 29.8842 18.4179 29.5424 18.4972 29.3959C18.4331 29.4234 18.3691 29.4569 18.308 29.4905C18.189 29.5515 18.0639 29.6187 17.9266 29.6553L17.8594 29.6736L17.9022 29.6187C17.9693 29.5332 18.0578 29.4539 18.1463 29.3776C18.3446 29.2036 18.5338 29.0358 18.5094 28.7673C18.4514 28.8344 18.3263 28.9565 18.1951 28.9351L18.1646 28.929L18.1798 28.9015C18.2195 28.8313 18.2683 28.7612 18.3141 28.691C18.4606 28.4774 18.5979 28.279 18.4606 28.0837C18.3538 28.3644 18.1371 28.5323 17.9845 28.5323C17.9815 28.5323 17.9784 28.5323 17.9754 28.5323H17.9296L17.9601 28.4957C18.305 28.099 18.3141 27.7053 17.9876 27.3849C18.0151 27.6961 17.9357 27.9982 17.8381 28.1112C17.8075 28.1447 17.777 28.163 17.7465 28.163H17.716L17.7252 28.1325C17.8808 27.6382 17.5909 27.1438 17.3834 27.0034C17.3437 27.1041 17.3681 27.1987 17.3956 27.3147C17.423 27.4306 17.4536 27.5619 17.4322 27.7358C17.4078 27.9281 17.3345 28.0684 17.2644 28.2027C17.2064 28.3156 17.1484 28.4194 17.1331 28.5475C17.1209 28.6727 17.2125 28.8161 17.2979 28.9534C17.3925 29.1029 17.4932 29.2586 17.4566 29.3989C17.4383 29.4752 17.3803 29.5393 17.2827 29.5912H17.2766C17.2338 29.6034 17.1911 29.6095 17.1514 29.6126C16.9958 29.6339 16.8615 29.6492 16.7395 29.9025L16.7242 29.936L16.7029 29.9086C16.593 29.7743 16.4221 29.7072 16.3122 29.759C16.239 29.7926 16.2115 29.875 16.2329 29.994V30.0032V30.0093C16.1658 30.1222 16.1536 30.2076 16.1963 30.2534C16.2512 30.3144 16.3824 30.3053 16.4465 30.2748L16.4862 30.2565L16.477 30.3022C16.474 30.3205 16.4679 30.3389 16.4618 30.3633C16.4374 30.4579 16.4007 30.6013 16.4618 30.6715C16.4923 30.705 16.5472 30.7234 16.6235 30.7173C16.5869 30.6257 16.6235 30.5403 16.7212 30.4853L16.7456 30.4701L16.7425 30.467Z" fill="#010101"/>
<path fill-rule="evenodd" clip-rule="evenodd" d="M18.0699 28.1267C18.0058 28.2884 17.8685 28.4074 17.8288 28.5173C17.7891 28.6333 17.9203 28.6485 18.0058 28.6272C18.0912 28.6058 18.1218 28.5875 18.2133 28.56C18.2133 28.6455 18.0302 28.8286 17.9997 28.9049C17.9692 28.9842 18.0058 29.0757 18.2011 29.0666C18.1828 29.1459 18.1431 29.1917 18.0394 29.268C17.9356 29.3443 17.8166 29.4786 17.7617 29.6098C17.7098 29.7196 17.8135 29.799 18.0943 29.7379C17.9966 29.8356 17.8044 29.8661 17.7037 29.9088C17.606 29.9516 17.5541 30.0584 17.7556 30.1957C17.7159 30.2354 17.6487 30.2171 17.5084 30.2018C17.3772 30.1896 17.1422 30.2537 17.1391 30.4246C17.0079 30.3666 16.9164 30.4246 16.8919 30.4398C16.8431 30.3208 16.6631 30.3544 16.599 30.4398C16.602 30.3727 16.6448 30.3269 16.6417 30.2842C16.6417 30.1621 16.5288 30.0919 16.2969 30.1774C16.3579 30.0828 16.3426 29.9485 16.3854 29.8753C16.5105 29.8692 16.5563 30.0065 16.6661 30.0584C16.7821 30.0919 16.8523 29.9882 16.9011 29.8966C16.9591 29.7685 17.1117 29.7471 17.2368 29.744C17.3894 29.7257 17.5358 29.5793 17.5786 29.4236C17.6457 29.1917 17.4382 28.8957 17.3619 28.798C17.2856 28.7004 17.2673 28.6149 17.2917 28.4654C17.3253 28.264 17.5053 27.9619 17.545 27.7757C17.5603 27.7086 17.5694 27.6201 17.5755 27.5225C17.6793 27.672 17.6243 28.0016 17.6152 28.1419C17.606 28.2823 17.7403 28.325 17.8318 28.2335C18.021 28.0443 18.0638 27.8276 18.0638 27.7117C18.134 27.8215 18.134 27.9619 18.0699 28.1206" fill="#DE0A1D"/>
<path fill-rule="evenodd" clip-rule="evenodd" d="M21.5338 24.4032C21.5338 24.4032 21.2745 24.1957 20.7557 24.1468C20.2369 24.095 19.9775 24.4429 19.3916 24.5314C19.3916 24.5314 19.4465 25.3095 19.4465 25.691C20.0508 25.7062 20.1362 25.2729 20.7252 25.2729C21.0608 25.2729 21.2439 25.3919 21.54 25.5811V24.4062L21.5338 24.4032Z" fill="white"/>
<path d="M19.4772 25.7126C19.4772 25.7126 19.4528 25.7126 19.4405 25.7126H19.4192V25.6913C19.4192 25.3159 19.3643 24.5408 19.3643 24.5347V24.5133L19.3826 24.5103C19.6389 24.4706 19.8312 24.3852 20.0143 24.2997C20.2431 24.196 20.4598 24.0983 20.7527 24.1258C21.2715 24.1777 21.534 24.3791 21.5431 24.3882L21.5523 24.3943V25.6241L21.5096 25.5936C21.2197 25.4075 21.0427 25.2946 20.7192 25.2946C20.4384 25.2946 20.2767 25.3953 20.1089 25.5021C19.941 25.6058 19.7701 25.7126 19.4772 25.7157V25.7126ZM19.465 25.6669C19.465 25.6669 19.4741 25.6669 19.4772 25.6669C19.7579 25.6669 19.9166 25.5662 20.0844 25.4624C20.2523 25.3586 20.4262 25.2488 20.7192 25.2488C21.0488 25.2488 21.2349 25.3617 21.5096 25.5387V24.4157C21.4577 24.3821 21.2013 24.2143 20.7466 24.1685C20.4628 24.141 20.2614 24.2326 20.0295 24.3394C19.8464 24.4218 19.6603 24.5103 19.407 24.55C19.4161 24.6751 19.4589 25.319 19.4619 25.6669H19.465Z" fill="#010101"/>
<path fill-rule="evenodd" clip-rule="evenodd" d="M20.4291 24.4739C20.4291 24.4739 20.4291 24.4464 20.4382 24.4495C20.4382 24.4403 20.4382 24.422 20.4382 24.4128C20.4382 24.4128 20.4321 24.4098 20.4199 24.4037C20.4199 24.4037 20.4108 24.4037 20.4016 24.3945C20.3924 24.3945 20.3833 24.4006 20.3741 24.4189V24.4281C20.3558 24.4281 20.3375 24.4342 20.3375 24.4434C20.3375 24.4708 20.3528 24.4617 20.3528 24.48C20.3528 24.4891 20.3436 24.48 20.3436 24.48C20.3345 24.48 20.3345 24.4891 20.3345 24.4983C20.3345 24.4983 20.3345 24.5074 20.3436 24.5074V24.4983C20.3558 24.4983 20.365 24.4962 20.3711 24.4922V24.5105C20.3711 24.5105 20.3711 24.538 20.3863 24.5288C20.3772 24.5288 20.3772 24.5196 20.3772 24.5196C20.3772 24.5013 20.3863 24.5013 20.3863 24.4922C20.3955 24.4678 20.3711 24.4647 20.3802 24.4464V24.4373C20.3802 24.4373 20.3986 24.4311 20.4077 24.422C20.4138 24.4403 20.3863 24.4647 20.4047 24.483C20.423 24.4922 20.4382 24.4952 20.4565 24.4952V24.5044C20.4565 24.5044 20.4535 24.5044 20.4474 24.5044C20.4352 24.5074 20.4108 24.5196 20.4169 24.5471C20.4169 24.5471 20.4199 24.5502 20.426 24.5563C20.426 24.5563 20.4535 24.541 20.4718 24.5502C20.4626 24.5502 20.4535 24.5563 20.4443 24.5563C20.4352 24.5563 20.426 24.5624 20.4169 24.5624C20.4077 24.5624 20.3986 24.5624 20.3986 24.5532C20.3986 24.5532 20.3986 24.5715 20.4138 24.5807C20.423 24.5807 20.4321 24.5807 20.4413 24.5746C20.4413 24.5746 20.4504 24.5563 20.4687 24.5593C20.4504 24.5654 20.4413 24.5837 20.4565 24.5929C20.4565 24.5837 20.4565 24.5746 20.4657 24.5685C20.4748 24.5685 20.5115 24.5685 20.5115 24.5685C20.5206 24.5685 20.5328 24.5898 20.5359 24.6051C20.5359 24.6203 20.542 24.6326 20.5359 24.6417C20.5359 24.6417 20.5176 24.657 20.5084 24.6478C20.5084 24.6661 20.5237 24.6661 20.5328 24.6661C20.5328 24.6661 20.5237 24.6661 20.5237 24.6753C20.5054 24.6814 20.4962 24.6753 20.4993 24.6631C20.4809 24.6783 20.487 24.7058 20.5054 24.7088C20.5054 24.7272 20.4687 24.7241 20.4626 24.7088C20.4443 24.6997 20.4565 24.6905 20.4626 24.6814C20.4718 24.6631 20.4718 24.6539 20.4626 24.6448C20.4474 24.6265 20.4138 24.5959 20.3955 24.5776V24.5868C20.3772 24.5776 20.3619 24.5563 20.3619 24.541C20.3528 24.541 20.3528 24.5502 20.3528 24.5502C20.3284 24.5227 20.2887 24.4647 20.2795 24.4464C20.2612 24.4525 20.2643 24.4861 20.2673 24.4983C20.2704 24.5105 20.2826 24.5349 20.307 24.5532C20.2978 24.5532 20.2551 24.5135 20.249 24.5044C20.2307 24.5288 20.2551 24.5654 20.2704 24.5868C20.2612 24.5868 20.246 24.5746 20.2368 24.5746C20.2368 24.602 20.2521 24.6112 20.2704 24.6204C20.2521 24.6204 20.2429 24.6203 20.2246 24.6265C20.2338 24.6356 20.249 24.6539 20.2765 24.6661C20.2582 24.6661 20.2399 24.6661 20.2307 24.6722C20.2399 24.6905 20.2551 24.7088 20.2826 24.7119C20.2643 24.7119 20.246 24.718 20.246 24.7272C20.2551 24.7363 20.2612 24.7455 20.2795 24.7485C20.2795 24.7485 20.2704 24.7485 20.2704 24.7577L20.2612 24.7668V24.7851H20.2521C20.2521 24.7943 20.2521 24.8034 20.2582 24.8034C20.2582 24.8126 20.2673 24.8034 20.2673 24.8126H20.2765L20.2856 24.8218C20.2948 24.8218 20.2948 24.8309 20.2948 24.8309C20.2948 24.8309 20.304 24.8309 20.304 24.8401L20.3589 24.9408L20.365 24.9591C20.365 24.9682 20.365 24.9774 20.3711 24.9774C20.3711 24.9774 20.3731 24.9835 20.3772 24.9957V25.0049L20.365 25.0232C20.365 25.0323 20.3741 25.0323 20.3741 25.0323C20.3741 25.0415 20.3802 25.0506 20.3894 25.0506C20.3894 25.0598 20.3986 25.0598 20.3986 25.0598H20.4077C20.4077 25.0598 20.4077 25.0781 20.4138 25.0781C20.4138 25.0781 20.4138 25.0842 20.423 25.0873C20.4291 25.0873 20.4413 25.0811 20.4413 25.0811C20.4413 25.0811 20.4382 25.0781 20.4321 25.072V25.0537V25.0445C20.4321 25.0445 20.4779 25.011 20.4962 25.014C20.5054 25.014 20.5145 25.0079 20.5145 25.0079C20.5237 25.0079 20.5328 25.0079 20.542 25.0079V24.9988C20.542 24.9988 20.542 24.9896 20.5359 24.9896V24.9804C20.5359 24.9804 20.545 24.9804 20.5542 24.9804C20.5542 24.9804 20.5633 24.9713 20.5633 24.9621C20.5542 24.9621 20.542 24.9682 20.5359 24.953C20.5298 24.9377 20.5481 24.9286 20.5633 24.9286C20.5817 24.9286 20.5939 24.9621 20.5786 24.9743C20.5633 24.9865 20.5603 24.9835 20.5572 25.0018C20.5664 24.9927 20.5755 24.9926 20.5847 24.9926C20.5664 25.0079 20.5481 25.0079 20.5389 25.0171C20.5298 25.0262 20.5206 25.0415 20.5115 25.0415C20.5023 25.0415 20.4932 25.0323 20.5054 25.0232C20.4962 25.0232 20.4871 25.0293 20.4871 25.0384C20.4779 25.0476 20.487 25.0567 20.4932 25.0659C20.484 25.0659 20.4748 25.0811 20.4809 25.0903C20.4809 25.0995 20.4901 25.0995 20.4871 25.1178C20.4962 25.1178 20.4962 25.1086 20.4962 25.0995L20.5054 25.0903C20.5054 25.1239 20.5481 25.13 20.5572 25.1117C20.5572 25.13 20.5939 25.1452 20.6091 25.1239C20.6091 25.133 20.6152 25.1422 20.6244 25.1513C20.6335 25.1422 20.6427 25.1361 20.6427 25.1269C20.6549 25.1361 20.6976 25.1208 20.6976 25.1056C20.7098 25.1269 20.7556 25.1056 20.7434 25.0811C20.7525 25.0811 20.7525 25.0903 20.7525 25.0903C20.7525 25.0995 20.7617 25.0995 20.7709 25.0995C20.7617 25.0903 20.7709 25.0903 20.7709 25.072C20.78 25.0628 20.7709 25.0445 20.7556 25.0445C20.7647 25.0354 20.7647 25.0262 20.7647 25.0201C20.7556 25.011 20.7464 25.011 20.7403 25.011C20.7495 25.0201 20.7464 25.0293 20.7403 25.0293C20.7312 25.0293 20.7159 25.0171 20.7068 25.0079C20.6976 24.9988 20.6732 24.9957 20.664 24.9865C20.6732 24.9865 20.6762 24.9865 20.6854 24.9865C20.6793 24.9743 20.6824 24.9804 20.664 24.9652C20.6457 24.953 20.6579 24.9225 20.6763 24.9225C20.6946 24.9225 20.7129 24.9225 20.7098 24.9438C20.7098 24.9621 20.6915 24.9499 20.6824 24.9499C20.6824 24.9591 20.6885 24.9682 20.6976 24.9682C20.6976 24.9682 20.7068 24.9682 20.7159 24.9682C20.7159 24.9865 20.7068 24.9865 20.7068 24.9926C20.7159 24.9926 20.7342 24.9926 20.7434 24.9926C20.7525 24.9926 20.7709 24.9926 20.78 24.9926C20.7892 24.9926 20.8075 24.9926 20.8166 24.9926C20.8258 25.0018 20.8349 25.0018 20.841 25.011C20.841 25.011 20.8471 25.011 20.8593 25.011L20.8685 25.0018H20.8868L20.896 24.9957C20.9051 24.9865 20.9143 24.9896 20.9143 24.9896V24.9804C20.9143 24.9804 20.9326 24.9652 20.9356 24.956V24.9469C20.9356 24.9469 20.9448 24.9469 20.9448 24.9377H20.9356V24.9286C20.9356 24.9133 20.9265 24.8858 20.8899 24.8858C20.8532 24.8858 20.838 24.9042 20.838 24.9316C20.8288 24.9316 20.8288 24.9408 20.8288 24.9408V24.9499C20.8288 24.9499 20.838 24.9499 20.8349 24.9591C20.8441 24.9591 20.8441 24.9682 20.8441 24.9682C20.8441 24.9774 20.8349 24.9774 20.8349 24.9774C20.8166 24.9835 20.7983 24.9774 20.7831 24.9743C20.7739 24.9743 20.7647 24.9652 20.7586 24.9652C20.7586 24.9652 20.7586 24.9591 20.7586 24.9469L20.7678 24.956V24.9469C20.7678 24.9469 20.777 24.956 20.7861 24.956C20.7861 24.9469 20.777 24.9377 20.78 24.9286C20.7892 24.9377 20.8136 24.9408 20.8166 24.9225C20.8075 24.9316 20.8075 24.9225 20.7983 24.9225C20.7983 24.9133 20.8075 24.8919 20.7983 24.8797C20.7922 24.8645 20.7831 24.8614 20.7647 24.8584C20.7464 24.8584 20.7373 24.8584 20.7312 24.8462H20.7403C20.7403 24.8462 20.7251 24.8004 20.7342 24.7851C20.7342 24.7851 20.7525 24.7851 20.7617 24.7943C20.7617 24.7943 20.7617 24.8187 20.7678 24.8309C20.7709 24.8401 20.7831 24.834 20.7861 24.8401C20.7892 24.834 20.8044 24.834 20.8044 24.8248C20.7983 24.8065 20.7983 24.7973 20.7983 24.7882C20.7983 24.7973 20.8105 24.8279 20.8136 24.834C20.8166 24.8401 20.8319 24.8431 20.841 24.8431C20.841 24.834 20.8593 24.837 20.8502 24.8187C20.8502 24.8187 20.8258 24.7821 20.8258 24.7729C20.8349 24.7821 20.8502 24.8096 20.8563 24.8279C20.8655 24.837 20.8746 24.8279 20.8838 24.8279C20.8838 24.8187 20.8929 24.8096 20.8838 24.8004C20.8777 24.7821 20.8685 24.7821 20.8532 24.7546C20.8746 24.7699 20.8929 24.8004 20.8929 24.8004C20.9021 24.8096 20.9204 24.8004 20.9295 24.8004C20.9204 24.7912 20.9295 24.7821 20.9234 24.7729C20.9143 24.7638 20.9051 24.7638 20.8899 24.7424C20.9082 24.7516 20.9112 24.7516 20.9234 24.7577C20.9356 24.7638 20.9509 24.7638 20.9601 24.7577C20.9509 24.7485 20.9601 24.7394 20.9173 24.7272C20.9539 24.7272 20.9601 24.7272 20.9784 24.7211C20.9723 24.7027 20.9631 24.6936 20.954 24.6936C20.9723 24.6936 20.9814 24.6875 20.9906 24.6692C20.9814 24.66 20.9662 24.66 20.9478 24.657C20.9753 24.6509 20.9936 24.6326 20.9967 24.6173C20.9875 24.6173 20.9692 24.6173 20.9509 24.6173C20.9784 24.6112 20.9967 24.5929 20.9997 24.5746C20.9814 24.5746 20.9723 24.5746 20.954 24.5746C20.9631 24.5654 20.9906 24.5502 20.9845 24.5227C20.9753 24.5227 20.9478 24.5288 20.9387 24.538C20.9662 24.5227 20.9784 24.48 20.9631 24.4586C20.9539 24.4678 20.9143 24.5074 20.9051 24.5166C20.9234 24.4922 20.9356 24.4739 20.9448 24.4556C20.9448 24.4373 20.9478 24.4037 20.9234 24.3915C20.9143 24.4159 20.8807 24.4769 20.8624 24.5013H20.8532C20.8532 24.5196 20.841 24.5349 20.8227 24.5532V24.5441C20.8044 24.5593 20.777 24.5929 20.7647 24.6112C20.7556 24.6203 20.7556 24.6356 20.7709 24.6478C20.7709 24.6478 20.78 24.657 20.777 24.6753C20.7586 24.6905 20.7312 24.6997 20.722 24.6814C20.7403 24.6753 20.7403 24.657 20.7342 24.6387C20.7251 24.6478 20.7159 24.6539 20.7068 24.6448C20.6976 24.6448 20.6885 24.6448 20.6885 24.6448C20.7068 24.6448 20.7159 24.6387 20.7159 24.6204C20.6976 24.6265 20.6885 24.6204 20.6885 24.6204C20.6793 24.6112 20.6732 24.602 20.6732 24.5837C20.6732 24.5746 20.6946 24.5502 20.7037 24.541H20.7129H20.722C20.7312 24.5319 20.7403 24.5349 20.7495 24.541C20.7586 24.541 20.7586 24.5502 20.7556 24.5593C20.7739 24.5532 20.7647 24.5349 20.7403 24.5319C20.7586 24.5257 20.7709 24.538 20.7739 24.5441C20.777 24.5502 20.7892 24.5471 20.8014 24.5441C20.8105 24.5441 20.8105 24.5196 20.8105 24.5196C20.8105 24.5196 20.8105 24.5227 20.8014 24.5288C20.7953 24.5349 20.7709 24.5288 20.7647 24.5288C20.7586 24.5257 20.7464 24.5196 20.7373 24.5288C20.7556 24.5135 20.7739 24.5135 20.7831 24.5227C20.7831 24.5227 20.7861 24.5196 20.7922 24.5135C20.7922 24.4861 20.777 24.4769 20.7586 24.4769L20.7525 24.4708C20.7709 24.4708 20.7861 24.4586 20.7953 24.4525C20.8136 24.4281 20.78 24.4067 20.7922 24.3915C20.8014 24.4006 20.8105 24.4006 20.8166 24.4006C20.8258 24.4006 20.8258 24.4098 20.8258 24.4098C20.8319 24.4281 20.8075 24.4342 20.8136 24.4525C20.8227 24.4617 20.8288 24.4739 20.8288 24.48C20.8288 24.4861 20.8288 24.4891 20.8197 24.4983C20.838 24.4922 20.8471 24.483 20.841 24.4647L20.8319 24.4556C20.8319 24.4556 20.8502 24.4647 20.8593 24.4556C20.8685 24.4556 20.8685 24.4647 20.8685 24.4647C20.8777 24.4647 20.8777 24.4556 20.8777 24.4464C20.8777 24.4373 20.8685 24.4373 20.8593 24.4373C20.8593 24.4373 20.8502 24.4464 20.8502 24.4373C20.8502 24.4281 20.8716 24.4159 20.8624 24.4037C20.8532 24.3884 20.8441 24.3945 20.8288 24.3915C20.8288 24.3915 20.8288 24.3823 20.8197 24.3823C20.8136 24.364 20.8044 24.364 20.7953 24.364C20.7953 24.364 20.7892 24.3691 20.777 24.3793C20.777 24.3793 20.7678 24.3793 20.7678 24.3884C20.7586 24.3976 20.7678 24.4067 20.7739 24.4159C20.7739 24.425 20.7831 24.4342 20.78 24.4434C20.78 24.4525 20.7617 24.4586 20.7525 24.4678H20.7434V24.4586C20.7525 24.4586 20.7525 24.4495 20.7525 24.4403C20.7617 24.422 20.7434 24.4067 20.7159 24.4067C20.6824 24.4067 20.6732 24.425 20.6824 24.4434C20.6824 24.4525 20.6915 24.4525 20.6885 24.4617C20.6701 24.4617 20.6457 24.4403 20.6366 24.4311L20.6274 24.422C20.6274 24.422 20.6366 24.3976 20.6488 24.3884C20.6579 24.364 20.6213 24.3457 20.5939 24.3457C20.5664 24.3457 20.5267 24.361 20.542 24.3884C20.542 24.3976 20.5481 24.4159 20.5572 24.425V24.4342C20.545 24.4525 20.5176 24.4678 20.4993 24.4739V24.4647C20.4993 24.4647 20.5084 24.4556 20.5084 24.4464C20.5176 24.4281 20.5054 24.4128 20.4779 24.4128C20.4443 24.4128 20.4291 24.4311 20.4382 24.4495C20.4382 24.4586 20.4443 24.4678 20.4443 24.4678M20.4718 24.8614V24.8706C20.4535 24.8767 20.4443 24.8767 20.4413 24.895C20.4321 24.9042 20.4413 24.9225 20.4413 24.9316C20.4413 24.9408 20.4321 24.9499 20.423 24.9377C20.4291 24.956 20.4565 24.9591 20.4596 24.9377C20.4687 24.9469 20.4657 24.9652 20.4596 24.9652C20.4687 24.9652 20.4779 24.9652 20.4779 24.9591V24.9682L20.4871 24.9591V24.9682C20.4871 24.9682 20.487 24.9774 20.4779 24.9774C20.4687 24.9865 20.4504 24.9926 20.4413 24.9926C20.4321 24.9926 20.423 24.9926 20.4138 24.9835C20.4138 24.9652 20.4077 24.9652 20.3955 24.9743H20.3863V24.9652L20.3772 24.956L20.368 24.9469C20.368 24.9469 20.3711 24.9408 20.368 24.9377C20.368 24.9377 20.365 24.9377 20.3589 24.9377C20.3589 24.9377 20.3589 24.9286 20.3528 24.9194L20.2978 24.8187C20.2978 24.8187 20.2978 24.8065 20.2978 24.8004C20.3101 24.7821 20.3314 24.779 20.3436 24.776C20.3314 24.7821 20.3162 24.7912 20.307 24.8004C20.2978 24.8096 20.307 24.8218 20.307 24.8279C20.3131 24.8279 20.3253 24.837 20.3345 24.8279C20.3436 24.8279 20.368 24.7821 20.3833 24.7699C20.368 24.7943 20.3528 24.8126 20.3436 24.8309C20.3436 24.8401 20.3497 24.8492 20.3497 24.8584C20.3589 24.8492 20.368 24.8584 20.3772 24.8523C20.3863 24.834 20.3986 24.8004 20.4077 24.7912C20.4077 24.8004 20.3863 24.8431 20.3863 24.8431C20.3863 24.8614 20.3924 24.8614 20.4016 24.8706C20.4108 24.8614 20.4199 24.8645 20.4199 24.8553C20.4199 24.8462 20.4321 24.8126 20.4321 24.8034C20.4321 24.8126 20.4321 24.8309 20.4321 24.8401C20.4321 24.8584 20.4443 24.8523 20.4474 24.8584C20.4535 24.8523 20.4657 24.8584 20.4657 24.8431C20.4657 24.834 20.4657 24.8065 20.4657 24.8065L20.4748 24.8157C20.4748 24.8157 20.484 24.8065 20.484 24.7973H20.4932C20.4993 24.8157 20.5084 24.8523 20.4901 24.8584H20.4993C20.4993 24.8584 20.4809 24.8767 20.4718 24.8645M20.545 25.075C20.545 25.075 20.5267 25.075 20.5267 25.0659C20.5267 25.0659 20.5328 25.0659 20.545 25.0659V25.075ZM20.7068 25.0506C20.7068 25.0506 20.7068 25.0689 20.6976 25.0689V25.0598C20.6976 25.0598 20.7068 25.0598 20.7068 25.0506ZM20.5572 25.0506C20.5572 25.0506 20.5481 25.0415 20.5511 25.0323C20.5603 25.0232 20.5786 25.0079 20.5908 24.9896C20.5908 24.9988 20.5603 25.0323 20.5603 25.0506M20.6061 25.0354C20.6061 25.0537 20.603 25.0873 20.603 25.0964C20.5847 25.0964 20.5878 25.0506 20.5969 25.0354C20.6061 25.0171 20.6091 24.9926 20.6091 24.9743C20.6183 24.9835 20.6091 25.0171 20.6061 25.0354ZM20.6549 25.0995C20.6549 25.0811 20.6488 25.0537 20.6427 25.0354C20.6366 25.0171 20.6213 24.9804 20.6305 24.9713C20.6305 24.9804 20.6366 25.0079 20.6518 25.0354C20.661 25.0445 20.6763 25.0811 20.6579 25.0964M20.6976 25.0201C20.6976 25.0201 20.6976 25.0354 20.6885 25.0384C20.6885 25.0293 20.6549 24.9926 20.6488 24.9835C20.6671 25.0049 20.6915 25.014 20.7007 25.0232M20.6671 24.4891C20.6671 24.4891 20.6488 24.4891 20.6396 24.4891C20.6396 24.4891 20.6447 24.4952 20.6549 24.5074C20.6549 24.5074 20.6366 24.5227 20.6183 24.5227C20.6183 24.5227 20.6274 24.5319 20.6366 24.5319C20.6183 24.5563 20.6061 24.5837 20.6061 24.6081C20.6061 24.5807 20.5908 24.5532 20.5755 24.5257C20.5847 24.5257 20.5939 24.5257 20.5939 24.5196C20.5755 24.5257 20.5572 24.5196 20.5511 24.5074C20.5603 24.5074 20.5664 24.5074 20.5694 24.4922C20.5603 24.5013 20.5511 24.4983 20.542 24.4983C20.5511 24.4891 20.5694 24.483 20.5694 24.4739C20.5694 24.4739 20.542 24.48 20.5237 24.48C20.5511 24.4739 20.5786 24.4586 20.5878 24.4495C20.5969 24.4495 20.6061 24.4495 20.6152 24.4495C20.6335 24.4586 20.6488 24.4708 20.6763 24.4708C20.6671 24.4708 20.6457 24.4708 20.6305 24.4708C20.6396 24.48 20.6549 24.4891 20.664 24.4922" fill="#E52922"/>
<path fill-rule="evenodd" clip-rule="evenodd" d="M19.5253 26.0332L19.4551 26.1034L21.1884 26.8419L21.5821 26.8816L19.5253 26.0332Z" fill="#DE0A1D"/>
<path d="M21.5797 26.8902L21.183 26.8506L19.4375 26.106L19.5199 26.0205H19.526L21.5828 26.8719L21.5767 26.8902H21.5797ZM21.1891 26.8322L21.5157 26.8658L19.526 26.0449L19.4711 26.0999L21.1891 26.8322Z" fill="#010101"/>
<path fill-rule="evenodd" clip-rule="evenodd" d="M17.4355 25.9961L19.294 26.0236L19.3672 26.1365L17.7102 26.1243L17.4355 25.9961Z" fill="#DE0A1D"/>
<path d="M19.3857 26.1461L17.7073 26.1309L17.4326 26.0027V25.9844L19.3002 26.0118L19.3826 26.1431L19.3857 26.1461ZM17.7134 26.1125L19.349 26.1248L19.2911 26.0332L17.4845 26.0057L17.7164 26.1125H17.7134Z" fill="#010101"/>
<path fill-rule="evenodd" clip-rule="evenodd" d="M17.2676 26.0235V26.1242C17.2676 26.1486 17.2859 26.17 17.3103 26.1731L21.7748 27.0245C21.8054 27.0306 21.8359 27.0061 21.8359 26.9726C21.8359 26.9482 21.8176 26.9268 21.7962 26.9238L17.3286 25.9716C17.2981 25.9655 17.2676 25.99 17.2676 26.0205" fill="#DE0A1D"/>
<path d="M21.7873 27.0372C21.7873 27.0372 21.7781 27.0372 21.7751 27.0372L17.3105 26.1858C17.2831 26.1797 17.2617 26.1553 17.2617 26.1248V26.024C17.2617 26.0057 17.2709 25.9874 17.2831 25.9752C17.2983 25.963 17.3166 25.96 17.335 25.963L21.8025 26.9151C21.83 26.9212 21.8514 26.9456 21.8514 26.9762C21.8514 26.9945 21.8422 27.0128 21.83 27.0219C21.8178 27.0311 21.8056 27.0372 21.7903 27.0372H21.7873ZM17.3197 25.9813C17.3197 25.9813 17.3014 25.9844 17.2953 25.9905C17.2861 25.9996 17.28 26.0118 17.28 26.024V26.1248C17.28 26.1461 17.2953 26.1614 17.3136 26.1644L21.7812 27.0158C21.7812 27.0158 21.8056 27.0158 21.8148 27.0067C21.8239 26.9975 21.83 26.9884 21.83 26.9731C21.83 26.9548 21.8178 26.9365 21.7964 26.9334L17.3289 25.9813C17.3289 25.9813 17.3227 25.9813 17.3197 25.9813Z" fill="#010101"/>
<path fill-rule="evenodd" clip-rule="evenodd" d="M19.3398 24.0742L19.3459 30.8641H19.4833L19.465 24.0742H19.3398Z" fill="#DE0A1D"/>
<path d="M19.4825 30.8735H19.3452H19.3391C19.3391 30.8735 19.3391 30.8705 19.3391 30.8674L19.333 24.0775C19.333 24.0775 19.3361 24.0684 19.3422 24.0684H19.4673C19.4673 24.0684 19.4764 24.0714 19.4764 24.0775L19.4947 30.8674C19.4947 30.8674 19.4917 30.8766 19.4856 30.8766L19.4825 30.8735ZM19.3544 30.8552H19.4703L19.452 24.0867H19.3483L19.3544 30.8552Z" fill="#010101"/>
<path fill-rule="evenodd" clip-rule="evenodd" d="M19.5139 23.9761C19.5139 24.0371 19.4651 24.089 19.401 24.089C19.3369 24.089 19.2881 24.0402 19.2881 23.9791C19.2881 23.9181 19.3369 23.8662 19.3979 23.8662C19.459 23.8662 19.5109 23.915 19.5109 23.9761" fill="#DE0A1D"/>
<path d="M19.4003 24.0954C19.3331 24.0954 19.2812 24.0436 19.2812 23.9764C19.2812 23.9093 19.3331 23.8574 19.4003 23.8574C19.4674 23.8574 19.5193 23.9093 19.5193 23.9764C19.5193 24.0436 19.4674 24.0954 19.4003 24.0954ZM19.4003 23.8727C19.3423 23.8727 19.2965 23.9185 19.2965 23.9764C19.2965 24.0344 19.3423 24.0802 19.4003 24.0802C19.4582 24.0802 19.504 24.0344 19.504 23.9764C19.504 23.9185 19.4582 23.8727 19.4003 23.8727Z" fill="#010101"/>
<path fill-rule="evenodd" clip-rule="evenodd" d="M19.5803 26.1587C19.5803 26.2014 19.5162 26.4059 19.4125 26.4059C19.2904 26.4059 19.2324 26.2045 19.2324 26.1617C19.2324 26.1129 19.3057 26.0732 19.4064 26.0732C19.4918 26.0732 19.5803 26.1099 19.5803 26.1587Z" fill="#DE0A1D"/>
<path d="M19.4128 26.4143C19.2877 26.4143 19.2236 26.2098 19.2236 26.161C19.2236 26.1061 19.2999 26.0664 19.4037 26.0664C19.4922 26.0664 19.5837 26.103 19.5868 26.161C19.5868 26.2007 19.5257 26.4143 19.4128 26.4143ZM19.4067 26.0817C19.3121 26.0817 19.2419 26.1183 19.2419 26.161C19.2419 26.2007 19.2999 26.399 19.4159 26.399C19.5105 26.399 19.5746 26.2007 19.5746 26.161C19.5746 26.1213 19.4952 26.0817 19.4067 26.0817Z" fill="#010101"/>
<path fill-rule="evenodd" clip-rule="evenodd" d="M19.5442 26.0244C19.5442 26.061 19.4831 26.0854 19.4069 26.0854C19.3336 26.0854 19.2695 26.061 19.2695 26.0244C19.2695 25.9756 19.3306 25.9512 19.4069 25.9512C19.4831 25.9512 19.5442 25.9756 19.5442 26.0244Z" fill="#DE0A1D"/>
<path d="M19.4071 26.094C19.3369 26.094 19.2637 26.0696 19.2637 26.0238C19.2637 25.975 19.3186 25.9414 19.4071 25.9414C19.4956 25.9414 19.5505 25.9719 19.5505 26.0238C19.5505 26.0696 19.4773 26.094 19.4071 26.094ZM19.4071 25.9567C19.3491 25.9567 19.2789 25.975 19.2789 26.0238C19.2789 26.0543 19.3369 26.0787 19.4071 26.0787C19.4773 26.0787 19.5353 26.0543 19.5353 26.0238C19.5353 25.975 19.4651 25.9567 19.4071 25.9567Z" fill="#010101"/>
<path fill-rule="evenodd" clip-rule="evenodd" d="M15.5127 28.7554C15.5127 28.7889 15.5402 28.8164 15.5737 28.8164C15.6073 28.8164 15.6348 28.7889 15.6348 28.7554C15.6348 28.7218 15.6073 28.6943 15.5737 28.6943C15.5402 28.6943 15.5127 28.7218 15.5127 28.7554Z" fill="#020303"/>
<path fill-rule="evenodd" clip-rule="evenodd" d="M16.0652 32.9971C16.0652 32.9971 16.0652 33.0001 16.0652 33.0032C16.0377 33.0398 15.9492 33.1802 16.0622 33.2382C16.1781 33.2992 16.5992 33.1771 16.7793 33.1344C16.7823 33.1344 16.7793 33.1374 16.7762 33.1405C16.5931 33.1985 16.1629 33.3511 16.0347 33.3053C15.876 33.2473 15.9523 33.0581 16.0652 33.0001" fill="white"/>
<path fill-rule="evenodd" clip-rule="evenodd" d="M16.0838 32.9697C16.0838 32.9697 16.0899 32.9697 16.0868 32.9728C16.0563 33.0125 15.9647 33.1467 16.0777 33.2047C16.1906 33.2627 16.5964 33.1742 16.7826 33.1284C16.7856 33.1284 16.7887 33.1345 16.7826 33.1345C16.5934 33.1925 16.1753 33.3146 16.0502 33.2688C15.8915 33.2139 15.9709 33.0277 16.0838 32.9697Z" fill="#010101"/>
<path d="M16.1257 33.2927C16.0921 33.2927 16.0647 33.2897 16.0464 33.2836C15.9884 33.2622 15.9548 33.2225 15.9487 33.1676C15.9426 33.0913 15.9975 32.9998 16.0769 32.957C16.0769 32.957 16.0921 32.957 16.0982 32.9601C16.1043 32.9662 16.1043 32.9753 16.0982 32.9814C16.0799 33.0028 16.025 33.0791 16.0403 33.1401C16.0464 33.1615 16.0586 33.1798 16.086 33.192C16.1654 33.2317 16.4187 33.2042 16.7818 33.1157C16.791 33.1157 16.8001 33.1157 16.8001 33.1279C16.8001 33.1371 16.8001 33.1462 16.7879 33.1462C16.6018 33.2042 16.2966 33.2897 16.1288 33.2897L16.1257 33.2927ZM16.0433 33.015C16.0006 33.0577 15.9731 33.1157 15.9762 33.1645C15.9792 33.2073 16.0067 33.2408 16.0555 33.2561C16.1288 33.2836 16.3088 33.25 16.4797 33.2073C16.3088 33.2378 16.141 33.253 16.0708 33.2164C16.0403 33.2012 16.0189 33.1767 16.0128 33.1462C16.0036 33.1035 16.0219 33.0547 16.0433 33.015Z" fill="#010101"/>
<path fill-rule="evenodd" clip-rule="evenodd" d="M17.1511 33.1348C17.1511 33.1348 17.1511 33.1378 17.1511 33.1409C17.1237 33.1775 17.0352 33.3179 17.1481 33.3758C17.2641 33.4369 17.6852 33.3148 17.8652 33.2721C17.8683 33.2721 17.8652 33.2751 17.8622 33.2782C17.6791 33.3362 17.2488 33.4888 17.1206 33.443C16.9619 33.385 17.0382 33.1958 17.1511 33.1378" fill="white"/>
<path fill-rule="evenodd" clip-rule="evenodd" d="M17.1697 33.1064C17.1697 33.1064 17.1758 33.1064 17.1728 33.1095C17.1422 33.1492 17.0507 33.2834 17.1636 33.3414C17.2765 33.3994 17.6824 33.3109 17.8685 33.2651C17.8716 33.2651 17.8746 33.2712 17.8685 33.2712C17.6793 33.3292 17.2613 33.4513 17.1361 33.4055C16.9774 33.3506 17.0568 33.1644 17.1697 33.1064Z" fill="#010101"/>
<path d="M17.2126 33.4303C17.179 33.4303 17.1516 33.4272 17.1333 33.4211C17.0753 33.3998 17.0417 33.3601 17.0356 33.3052C17.0295 33.2289 17.0844 33.1373 17.1638 33.0977C17.1638 33.0977 17.179 33.0977 17.1852 33.1007C17.1913 33.1068 17.1913 33.116 17.1852 33.1221C17.1668 33.1434 17.1119 33.2197 17.1272 33.2808C17.1333 33.3021 17.1455 33.3204 17.1729 33.3326C17.2523 33.3723 17.5056 33.3448 17.8687 33.2563C17.8779 33.2563 17.887 33.2563 17.887 33.2686C17.887 33.2777 17.887 33.2869 17.8748 33.2869C17.6887 33.3448 17.3835 33.4303 17.2157 33.4303H17.2126ZM17.1302 33.1526C17.0875 33.1953 17.06 33.2533 17.0631 33.3021C17.0661 33.3448 17.0936 33.3784 17.1424 33.3937C17.2157 33.4181 17.3957 33.3876 17.5666 33.3448C17.3957 33.3754 17.2279 33.3906 17.1577 33.354C17.1272 33.3387 17.1058 33.3143 17.0997 33.2838C17.0905 33.2411 17.1089 33.1923 17.1302 33.1526Z" fill="#010101"/>
<path fill-rule="evenodd" clip-rule="evenodd" d="M18.2254 33.2041C18.2254 33.2041 18.2254 33.2072 18.2254 33.2102C18.1979 33.2468 18.1094 33.3872 18.2223 33.4452C18.3383 33.5062 18.7594 33.3841 18.9394 33.3414C18.9425 33.3414 18.9394 33.3445 18.9364 33.3475C18.7533 33.4055 18.323 33.5581 18.1948 33.5123C18.0362 33.4543 18.1125 33.2651 18.2254 33.2072" fill="white"/>
<path fill-rule="evenodd" clip-rule="evenodd" d="M18.2439 33.1768C18.2439 33.1768 18.25 33.1768 18.247 33.1798C18.2165 33.2195 18.1249 33.3537 18.2378 33.4117C18.3507 33.4697 18.7566 33.3812 18.9427 33.3354C18.9458 33.3354 18.9488 33.3415 18.9427 33.3415C18.7535 33.3995 18.3355 33.5216 18.2104 33.4758C18.0517 33.4209 18.131 33.2347 18.2439 33.1768Z" fill="#010101"/>
<path d="M18.2898 33.5007C18.2562 33.5007 18.2287 33.4977 18.2104 33.4916C18.1524 33.4702 18.1189 33.4305 18.1128 33.3756C18.1067 33.2993 18.1616 33.2078 18.2409 33.165C18.2409 33.165 18.2562 33.165 18.2592 33.1681C18.2653 33.1742 18.2653 33.1833 18.2592 33.1895C18.2409 33.2108 18.186 33.2902 18.1982 33.3481C18.2043 33.3695 18.2165 33.3878 18.244 33.4C18.3233 33.4397 18.5766 33.4122 18.9398 33.3237C18.9489 33.3237 18.9581 33.3237 18.9581 33.3359C18.9581 33.3451 18.9581 33.3542 18.9459 33.3542C18.7597 33.4122 18.4546 33.4977 18.2867 33.4977L18.2898 33.5007ZM18.2074 33.223C18.1646 33.2657 18.1372 33.3237 18.1402 33.3726C18.1433 33.4153 18.1707 33.4488 18.2196 33.4641C18.2928 33.4916 18.4729 33.458 18.6438 33.4153C18.4729 33.4458 18.305 33.461 18.2348 33.4244C18.2043 33.4092 18.183 33.3848 18.1769 33.3542C18.1677 33.3115 18.186 33.2627 18.2074 33.223Z" fill="#010101"/>
<path fill-rule="evenodd" clip-rule="evenodd" d="M19.4705 33.2012C19.4705 33.2012 19.4705 33.2042 19.4705 33.2073C19.443 33.2439 19.3545 33.3843 19.4674 33.4422C19.5834 33.5033 20.0045 33.3812 20.1846 33.3385C20.1876 33.3385 20.1846 33.3415 20.1815 33.3446C19.9984 33.4026 19.5681 33.5552 19.44 33.5094C19.2813 33.4514 19.3576 33.2622 19.4705 33.2042" fill="white"/>
<path fill-rule="evenodd" clip-rule="evenodd" d="M19.489 33.1738C19.489 33.1738 19.4951 33.1738 19.4921 33.1769C19.4616 33.2166 19.37 33.3508 19.4829 33.4088C19.5958 33.4668 20.0017 33.3783 20.1879 33.3325C20.1909 33.3325 20.194 33.3386 20.1879 33.3386C19.9987 33.3966 19.5806 33.5187 19.4555 33.4729C19.2968 33.418 19.3761 33.2318 19.489 33.1738Z" fill="#010101"/>
<path d="M19.5319 33.4978C19.4984 33.4978 19.4709 33.4947 19.4526 33.4886C19.3946 33.4673 19.3611 33.4276 19.355 33.3727C19.3489 33.2964 19.4038 33.2048 19.4831 33.1621C19.4831 33.1621 19.4984 33.1621 19.5014 33.1652C19.5075 33.1713 19.5075 33.1804 19.5014 33.1865C19.4831 33.2079 19.4282 33.2872 19.4404 33.3452C19.4465 33.3666 19.4587 33.3849 19.4862 33.3971C19.5655 33.4368 19.8188 33.4093 20.1819 33.3208C20.1911 33.3208 20.2003 33.3208 20.2003 33.333C20.2003 33.3422 20.2003 33.3513 20.188 33.3513C20.0019 33.4093 19.6967 33.4947 19.5289 33.4947L19.5319 33.4978ZM19.4496 33.2201C19.4068 33.2628 19.3794 33.3208 19.3824 33.3696C19.3855 33.4123 19.4129 33.4459 19.4618 33.4612C19.535 33.4886 19.715 33.4551 19.8859 33.4123C19.715 33.4429 19.5472 33.4581 19.477 33.4215C19.4465 33.4062 19.4251 33.3818 19.419 33.3513C19.4099 33.3086 19.4282 33.2598 19.4496 33.2201Z" fill="#010101"/>
<path fill-rule="evenodd" clip-rule="evenodd" d="M20.5847 33.1826C20.5847 33.1826 20.5847 33.1857 20.5847 33.1887C20.5573 33.2253 20.4688 33.3657 20.5817 33.4237C20.6977 33.4847 21.1188 33.3627 21.2988 33.3199C21.3019 33.3199 21.2988 33.323 21.2958 33.326C21.1127 33.384 20.6824 33.5366 20.5542 33.4908C20.3955 33.4329 20.4718 33.2437 20.5847 33.1857" fill="white"/>
<path fill-rule="evenodd" clip-rule="evenodd" d="M20.6062 33.1582C20.6062 33.1582 20.6123 33.1582 20.6093 33.1613C20.5788 33.2009 20.4872 33.3352 20.6001 33.3932C20.713 33.4512 21.1189 33.3627 21.305 33.3169C21.3081 33.3169 21.3112 33.323 21.305 33.323C21.1158 33.381 20.6978 33.503 20.5727 33.4573C20.414 33.4023 20.4933 33.2162 20.6062 33.1582Z" fill="#010101"/>
<path d="M20.6482 33.4792C20.6146 33.4792 20.5871 33.4792 20.5688 33.4701C20.5108 33.4487 20.4773 33.409 20.4712 33.3541C20.4651 33.2778 20.52 33.1863 20.5993 33.1436C20.5993 33.1436 20.6146 33.1436 20.6176 33.1466C20.6237 33.1527 20.6237 33.1619 20.6176 33.168C20.5993 33.1893 20.5444 33.2687 20.5566 33.3267C20.5627 33.348 20.5749 33.3663 20.6024 33.3785C20.6817 33.4182 20.935 33.3907 21.2982 33.3022C21.3073 33.3022 21.3165 33.3022 21.3165 33.3144C21.3165 33.3236 21.3165 33.3328 21.3043 33.3328C21.1181 33.3907 20.8129 33.4762 20.6451 33.4762L20.6482 33.4792ZM20.5658 33.2015C20.523 33.2443 20.4925 33.3022 20.4986 33.3511C20.5017 33.3938 20.5291 33.4274 20.578 33.4426C20.639 33.464 20.7885 33.4457 21.0052 33.3907C20.8343 33.4213 20.6634 33.4365 20.5932 33.3999C20.5627 33.3846 20.5414 33.3602 20.5352 33.3297C20.5261 33.287 20.5444 33.2382 20.5658 33.1985V33.2015Z" fill="#010101"/>
<path fill-rule="evenodd" clip-rule="evenodd" d="M21.5213 33.0518C21.5213 33.0518 21.5213 33.0548 21.5213 33.0579C21.4938 33.0945 21.4053 33.2349 21.5182 33.2928C21.6342 33.3539 22.0553 33.2318 22.2353 33.1891C22.2384 33.1891 22.2353 33.1921 22.2323 33.1952C22.0492 33.2532 21.6189 33.4057 21.4907 33.36C21.3321 33.302 21.4084 33.1128 21.5213 33.0548" fill="white"/>
<path fill-rule="evenodd" clip-rule="evenodd" d="M21.5427 33.0244C21.5427 33.0244 21.5489 33.0244 21.5458 33.0275C21.5153 33.0671 21.4237 33.2014 21.5366 33.2594C21.6496 33.3174 22.0554 33.2289 22.2416 33.1831C22.2446 33.1831 22.2477 33.1892 22.2416 33.1892C22.0524 33.2472 21.6343 33.3692 21.5092 33.3235C21.3505 33.2685 21.4298 33.0824 21.5427 33.0244Z" fill="#010101"/>
<path d="M21.5857 33.3477C21.5521 33.3477 21.5246 33.3477 21.5063 33.3385C21.4483 33.3172 21.4148 33.2775 21.4087 33.2226C21.4026 33.1463 21.4575 33.0547 21.5368 33.012C21.5429 33.009 21.5521 33.012 21.5551 33.0151C21.5582 33.0181 21.5612 33.0303 21.5551 33.0364C21.5368 33.0578 21.4819 33.1341 21.4941 33.1951C21.5002 33.2165 21.5124 33.2348 21.5399 33.247C21.6192 33.2867 21.8725 33.2592 22.2357 33.1707C22.2448 33.1707 22.254 33.1707 22.254 33.1829C22.254 33.1921 22.254 33.2012 22.2418 33.2012C22.0556 33.2592 21.7504 33.3446 21.5826 33.3446L21.5857 33.3477ZM21.5033 33.07C21.4605 33.1127 21.4331 33.1707 21.4361 33.2195C21.4392 33.2622 21.4666 33.2958 21.5155 33.3111C21.5765 33.3324 21.726 33.3141 21.9427 33.2592C21.7718 33.2897 21.6009 33.305 21.5307 33.2683C21.5002 33.2531 21.4789 33.2287 21.4727 33.1982C21.4636 33.1554 21.4819 33.1066 21.5033 33.0669V33.07Z" fill="#010101"/>
<path fill-rule="evenodd" clip-rule="evenodd" d="M16.0711 33.8328C16.0711 33.8328 16.065 33.8236 16.0711 33.8236C16.1168 33.8114 16.2298 33.7748 16.2847 33.7229C16.3396 33.6741 16.3823 33.61 16.4006 33.5795C16.4006 33.5764 16.4098 33.5795 16.4098 33.5795C16.4098 33.61 16.3854 33.6924 16.3122 33.7504C16.2328 33.8145 16.1168 33.8328 16.0741 33.8267" fill="#010101"/>
<path fill-rule="evenodd" clip-rule="evenodd" d="M16.0867 33.8757C16.0867 33.8757 16.0806 33.8666 16.0867 33.8666C16.1325 33.8544 16.2454 33.8178 16.3003 33.7659C16.3552 33.7171 16.398 33.653 16.4163 33.6225C16.4163 33.6194 16.4254 33.6225 16.4254 33.6225C16.4254 33.653 16.398 33.7354 16.3278 33.7933C16.2484 33.8574 16.1325 33.8757 16.0897 33.8696" fill="#010101"/>
<path fill-rule="evenodd" clip-rule="evenodd" d="M16.1053 33.9158C16.1053 33.9158 16.0991 33.9066 16.1053 33.9066C16.151 33.8944 16.2639 33.8578 16.3189 33.8059C16.3738 33.7571 16.4165 33.693 16.4348 33.6625C16.4348 33.6594 16.444 33.6625 16.444 33.6625C16.444 33.693 16.4165 33.7754 16.3463 33.8334C16.267 33.8975 16.151 33.9158 16.1083 33.9097" fill="#010101"/>
<path fill-rule="evenodd" clip-rule="evenodd" d="M16.7519 33.8756C16.7519 33.8756 16.758 33.8665 16.7519 33.8665C16.7062 33.8542 16.581 33.8085 16.52 33.7505C16.5383 33.7566 16.5841 33.7688 16.5841 33.7566C16.5841 33.7505 16.5414 33.7322 16.5048 33.7108C16.4529 33.6773 16.4315 33.6437 16.4193 33.6254C16.4193 33.6223 16.4102 33.6254 16.4102 33.6254C16.4102 33.6559 16.4376 33.7383 16.5078 33.7963C16.5872 33.8604 16.7062 33.8756 16.7458 33.8726" fill="#010101"/>
<path fill-rule="evenodd" clip-rule="evenodd" d="M17.3982 33.9002C17.3982 33.9002 17.3921 33.891 17.3982 33.891C17.444 33.8788 17.5569 33.8422 17.6118 33.7903C17.6668 33.7415 17.7095 33.6743 17.7278 33.6469C17.7278 33.6438 17.737 33.6469 17.737 33.6469C17.737 33.6774 17.7095 33.7598 17.6393 33.8178C17.56 33.8818 17.444 33.9001 17.4013 33.894" fill="#010101"/>
<path fill-rule="evenodd" clip-rule="evenodd" d="M17.4109 33.9431C17.4109 33.9431 17.4048 33.934 17.4109 33.934C17.4567 33.9218 17.5696 33.8851 17.6245 33.8333C17.6795 33.7844 17.7222 33.7203 17.7405 33.6898C17.7405 33.6868 17.7496 33.6898 17.7496 33.6898C17.7496 33.7203 17.7252 33.8027 17.652 33.8607C17.5727 33.9248 17.4567 33.9431 17.414 33.937" fill="#010101"/>
<path fill-rule="evenodd" clip-rule="evenodd" d="M17.4295 33.9822C17.4295 33.9822 17.4234 33.973 17.4295 33.973C17.4752 33.9608 17.5882 33.9242 17.6431 33.8723C17.698 33.8235 17.7407 33.7594 17.759 33.7289C17.759 33.7258 17.7682 33.7289 17.7682 33.7289C17.7682 33.7594 17.7407 33.8418 17.6705 33.8998C17.5912 33.9639 17.4752 33.9822 17.4325 33.9761" fill="#010101"/>
<path fill-rule="evenodd" clip-rule="evenodd" d="M18.0762 33.943C18.0762 33.943 18.0823 33.9338 18.0762 33.9338C18.0304 33.9216 17.9053 33.8759 17.8442 33.8179C17.8625 33.824 17.9083 33.8362 17.9083 33.824C17.9083 33.8179 17.8656 33.7996 17.829 33.7782C17.7771 33.7446 17.7557 33.7111 17.7435 33.6928C17.7435 33.6897 17.7344 33.6928 17.7344 33.6928C17.7344 33.7233 17.7618 33.8057 17.832 33.8637C17.9114 33.9277 18.0304 33.943 18.0701 33.9399" fill="#010101"/>
<path fill-rule="evenodd" clip-rule="evenodd" d="M18.7781 33.8455C18.7781 33.8455 18.772 33.8363 18.7781 33.8363C18.8239 33.8241 18.9368 33.7875 18.9917 33.7356C19.0466 33.6868 19.0894 33.6227 19.1077 33.5922C19.1077 33.5891 19.1168 33.5922 19.1168 33.5922C19.1168 33.6227 19.0894 33.7051 19.0192 33.7631C18.9398 33.8272 18.8239 33.8455 18.7812 33.8394" fill="#010101"/>
<path fill-rule="evenodd" clip-rule="evenodd" d="M18.7898 33.8884C18.7898 33.8884 18.7837 33.8793 18.7898 33.8793C18.8356 33.8671 18.9485 33.8305 19.0034 33.7786C19.0584 33.7297 19.1011 33.6626 19.1194 33.6351C19.1194 33.6321 19.1286 33.6351 19.1286 33.6351C19.1286 33.6657 19.1011 33.7481 19.0309 33.806C18.9516 33.8701 18.8356 33.8884 18.7929 33.8823" fill="#010101"/>
<path fill-rule="evenodd" clip-rule="evenodd" d="M18.8113 33.9275C18.8113 33.9275 18.8052 33.9183 18.8113 33.9183C18.8571 33.9061 18.97 33.8695 19.0249 33.8176C19.0799 33.7688 19.1226 33.7017 19.1409 33.6742C19.1409 33.6712 19.15 33.6742 19.15 33.6742C19.15 33.7047 19.1226 33.7871 19.0524 33.8451C18.973 33.9092 18.8571 33.9275 18.8144 33.9214" fill="#010101"/>
<path fill-rule="evenodd" clip-rule="evenodd" d="M19.4551 33.8883C19.4551 33.8883 19.4612 33.8792 19.4551 33.8792C19.4093 33.8669 19.2811 33.8212 19.2231 33.7632C19.2414 33.7693 19.2872 33.7815 19.2872 33.7693C19.2872 33.7632 19.2445 33.7449 19.2079 33.7235C19.156 33.69 19.1346 33.6564 19.1224 33.6381C19.1224 33.635 19.1133 33.6381 19.1133 33.6381C19.1133 33.6686 19.1407 33.751 19.2109 33.809C19.2903 33.873 19.4093 33.8883 19.449 33.8853" fill="#010101"/>
<path fill-rule="evenodd" clip-rule="evenodd" d="M19.9129 33.8728C19.9129 33.8728 19.9068 33.8637 19.9129 33.8637C19.9586 33.8514 20.0716 33.8148 20.1265 33.7629C20.1814 33.7141 20.2241 33.65 20.2424 33.6195C20.2424 33.6165 20.2516 33.6195 20.2516 33.6195C20.2516 33.65 20.2241 33.7324 20.1539 33.7904C20.0746 33.8545 19.9586 33.8728 19.9159 33.8667" fill="#010101"/>
<path fill-rule="evenodd" clip-rule="evenodd" d="M19.9256 33.9158C19.9256 33.9158 19.9195 33.9066 19.9256 33.9066C19.9713 33.8944 20.0843 33.8578 20.1392 33.8059C20.1941 33.7571 20.2368 33.693 20.2551 33.6625C20.2551 33.6594 20.2643 33.6625 20.2643 33.6625C20.2643 33.693 20.2399 33.7754 20.1666 33.8334C20.0873 33.8975 19.9713 33.9158 19.9286 33.9097" fill="#010101"/>
<path fill-rule="evenodd" clip-rule="evenodd" d="M19.9441 33.9548C19.9441 33.9548 19.938 33.9457 19.9441 33.9457C19.9899 33.9335 20.1028 33.8969 20.1577 33.845C20.2127 33.7962 20.2554 33.729 20.2737 33.7016C20.2737 33.6985 20.2829 33.7016 20.2829 33.7016C20.2829 33.7321 20.2554 33.8145 20.1852 33.8724C20.1059 33.9365 19.9899 33.9548 19.9472 33.9487" fill="#010101"/>
<path fill-rule="evenodd" clip-rule="evenodd" d="M20.5908 33.9127C20.5908 33.9127 20.5969 33.9036 20.5908 33.9036C20.545 33.8914 20.4199 33.8456 20.3589 33.7876C20.3772 33.7937 20.423 33.8059 20.423 33.7937C20.423 33.7876 20.3802 33.7693 20.3436 33.7479C20.2917 33.7144 20.2704 33.6808 20.2582 33.6625C20.2582 33.6594 20.249 33.6625 20.249 33.6625C20.249 33.693 20.2765 33.7754 20.3467 33.8334C20.426 33.8975 20.545 33.9127 20.5847 33.9097" fill="#010101"/>
<path fill-rule="evenodd" clip-rule="evenodd" d="M20.9597 33.864C20.9597 33.864 20.9536 33.8549 20.9597 33.8549C21.0055 33.8427 21.1184 33.806 21.1734 33.7542C21.2283 33.7053 21.271 33.6412 21.2893 33.6107C21.2893 33.6077 21.2985 33.6107 21.2985 33.6107C21.2985 33.6412 21.271 33.7236 21.2008 33.7816C21.1215 33.8457 21.0055 33.864 20.9628 33.8579" fill="#010101"/>
<path fill-rule="evenodd" clip-rule="evenodd" d="M20.9754 33.9089C20.9754 33.9089 20.9693 33.8998 20.9754 33.8998C21.0211 33.8876 21.1341 33.851 21.189 33.7991C21.2439 33.7503 21.2866 33.6862 21.3049 33.6557C21.3049 33.6526 21.3141 33.6557 21.3141 33.6557C21.3141 33.6862 21.2866 33.7686 21.2164 33.8265C21.1371 33.8906 21.0211 33.9089 20.9784 33.9028" fill="#010101"/>
<path fill-rule="evenodd" clip-rule="evenodd" d="M20.9939 33.949C20.9939 33.949 20.9878 33.9398 20.9939 33.9398C21.0397 33.9276 21.1526 33.891 21.2075 33.8391C21.2625 33.7903 21.3052 33.7262 21.3235 33.6957C21.3235 33.6926 21.3327 33.6957 21.3327 33.6957C21.3327 33.7262 21.3052 33.8086 21.235 33.8666C21.1557 33.9307 21.0397 33.949 20.997 33.9429" fill="#010101"/>
<path fill-rule="evenodd" clip-rule="evenodd" d="M21.6406 33.9059C21.6406 33.9059 21.6467 33.8967 21.6406 33.8967C21.5948 33.8845 21.4667 33.8388 21.4087 33.7808C21.427 33.7869 21.4728 33.7991 21.4728 33.7869C21.4728 33.7808 21.43 33.7625 21.3934 33.7411C21.3416 33.7075 21.3202 33.674 21.308 33.6557C21.308 33.6526 21.2988 33.6557 21.2988 33.6557C21.2988 33.6862 21.3263 33.7686 21.3965 33.8265C21.4758 33.8906 21.5948 33.9059 21.6345 33.9028" fill="#010101"/>
<path fill-rule="evenodd" clip-rule="evenodd" d="M22.2322 33.6531C22.2322 33.6531 22.2261 33.6439 22.2322 33.6439C22.278 33.6317 22.3909 33.5951 22.4458 33.5432C22.5008 33.4944 22.5435 33.4303 22.5618 33.3998C22.5618 33.3967 22.5709 33.3998 22.5709 33.3998C22.5709 33.4303 22.5435 33.5127 22.4733 33.5707C22.3939 33.6348 22.278 33.6531 22.2353 33.647" fill="#010101"/>
<path fill-rule="evenodd" clip-rule="evenodd" d="M22.2478 33.699C22.2478 33.699 22.2417 33.6898 22.2478 33.6898C22.2936 33.6776 22.4065 33.641 22.4614 33.5891C22.5164 33.5403 22.5591 33.4732 22.5774 33.4457C22.5774 33.4426 22.5866 33.4457 22.5866 33.4457C22.5866 33.4762 22.5591 33.5586 22.4889 33.6166C22.4096 33.6807 22.2936 33.699 22.2509 33.6929" fill="#010101"/>
<path fill-rule="evenodd" clip-rule="evenodd" d="M22.2664 33.738C22.2664 33.738 22.2603 33.7289 22.2664 33.7289C22.3122 33.7167 22.4251 33.6801 22.48 33.6282C22.5349 33.5794 22.5777 33.5122 22.596 33.4848C22.596 33.4817 22.6051 33.4848 22.6051 33.4848C22.6051 33.5153 22.5777 33.5977 22.5075 33.6556C22.4281 33.7197 22.3122 33.738 22.2694 33.7319" fill="#010101"/>
<path fill-rule="evenodd" clip-rule="evenodd" d="M22.9131 33.6959C22.9131 33.6959 22.9192 33.6868 22.9131 33.6868C22.8673 33.6746 22.7391 33.6288 22.6811 33.5708C22.6995 33.5769 22.7452 33.5891 22.7452 33.5769C22.7452 33.5708 22.7025 33.5525 22.6659 33.5311C22.614 33.4976 22.5927 33.464 22.5804 33.4457C22.5804 33.4426 22.5713 33.4457 22.5713 33.4457C22.5713 33.4762 22.5988 33.5586 22.6689 33.6166C22.7483 33.6807 22.8673 33.6959 22.907 33.6929" fill="#010101"/>
<path d="M16.6692 37.822L16.4434 37.9898V37.6511L16.9072 37.291H17.1361L17.1422 39.122H16.8431L16.8401 37.9227C16.8401 37.8281 16.8462 37.7396 16.8553 37.6633H16.8492C16.8004 37.7152 16.7363 37.7732 16.6692 37.822Z" fill="#010101"/>
<path d="M18.7869 37.9193C18.7869 38.1421 18.6984 38.3526 18.5886 38.5418L18.2559 39.1186H17.9264L18.2651 38.5327C18.2224 38.5418 18.1827 38.5479 18.1339 38.5479C17.7585 38.5479 17.4961 38.3313 17.4961 37.901C17.4961 37.4982 17.7311 37.251 18.1369 37.251C18.5886 37.251 18.7839 37.5378 18.7839 37.9193M18.1369 38.2763C18.3719 38.2763 18.4757 38.1207 18.4757 37.8979C18.4757 37.6752 18.3689 37.5226 18.1339 37.5256C17.8989 37.5287 17.7952 37.6813 17.7982 37.901C17.8013 38.1207 17.9081 38.2763 18.1369 38.2763Z" fill="#010101"/>
<path d="M20.2392 37.2843V37.5498H19.458L19.4397 37.9862C19.5068 37.9038 19.6106 37.8458 19.7815 37.8458C20.1385 37.8458 20.3643 38.0655 20.3643 38.4989C20.3643 38.9139 20.1263 39.1488 19.7174 39.1488C19.3024 39.1488 19.1223 38.9352 19.0918 38.6362H19.3939C19.4244 38.804 19.5251 38.8773 19.7174 38.8742C19.9554 38.8742 20.0592 38.7338 20.0592 38.4989C20.0592 38.2486 19.9524 38.1174 19.7204 38.1174C19.5282 38.1174 19.4671 38.2059 19.4275 38.3096H19.1376L19.1803 37.2812H20.2423L20.2392 37.2843Z" fill="#010101"/>
<path d="M21.9119 37.9134C21.9119 38.1362 21.8234 38.3468 21.7136 38.536L21.381 39.1127H21.0514L21.3901 38.5268C21.3474 38.536 21.3077 38.5421 21.2589 38.5421C20.8835 38.5421 20.6211 38.3254 20.6211 37.8951C20.6211 37.4923 20.8561 37.2451 21.2619 37.2451C21.7136 37.2451 21.9089 37.532 21.9089 37.9134M21.2619 38.2705C21.4969 38.2705 21.6007 38.1148 21.6007 37.8921C21.6007 37.6693 21.4939 37.5167 21.2589 37.5198C21.0239 37.5228 20.9202 37.6754 20.9232 37.8951C20.9263 38.1148 21.0331 38.2705 21.2619 38.2705Z" fill="#010101"/>
<path d="M35.2904 19.6125C35.2874 20.3418 35.2843 21.0986 35.2782 21.4618C35.2568 22.8564 35.2324 24.5897 35.2416 28.6575C35.2568 34.3305 32.7148 39.3749 27.8902 43.2504C24.2679 46.1617 20.551 47.477 19.843 47.7119L19.3761 47.8676L18.9092 47.715C18.2013 47.4861 14.4783 46.1892 10.8377 43.2962C5.99167 39.4481 3.42524 34.416 3.40998 28.743C3.39778 24.6752 3.36421 22.9388 3.33674 21.5442C3.33064 21.1841 3.32149 20.4303 3.31538 19.6979L2.16797 18.3552C2.16797 18.5597 2.17407 18.8313 2.17712 19.1364C2.18628 20.0153 2.19543 21.1047 2.20459 21.5686C2.23205 22.9571 2.26867 24.6874 2.27783 28.746C2.29309 34.7761 5.01209 40.1134 10.1358 44.1842C13.929 47.1962 17.8198 48.5511 18.5613 48.7922L19.3822 49.0577L20.2001 48.7861C20.9416 48.542 24.8264 47.1657 28.6012 44.1324C33.7036 40.034 36.392 34.6815 36.3768 28.6545C36.3646 24.5989 36.392 22.8686 36.4134 21.474C36.4195 21.0162 36.4256 19.936 36.4287 19.0663C36.4287 18.7519 36.4287 18.4712 36.4317 18.2637L35.2935 19.6125H35.2904Z" fill="white"/>
<path d="M37.6769 13.4539L19.2999 22.621L0.895508 13.5363L19.2725 4.36914L37.6769 13.4539Z" fill="white"/>
<path d="M19.2995 22.7951L0.538086 13.5365L19.269 4.19238L38.0305 13.451L19.2995 22.7951ZM1.24912 13.5334L19.2995 22.4412L37.3225 13.451L19.2721 4.54332L1.24912 13.5334Z" fill="#DE0A1D"/>
<path fill-rule="evenodd" clip-rule="evenodd" d="M7.97755 16.317L24.9019 7.86097L20.8341 5.853L19.2716 5.08398L2.33203 13.534L3.57099 14.1443L7.97755 16.317Z" fill="#DE0A1D"/>
<path fill-rule="evenodd" clip-rule="evenodd" d="M30.5788 10.6621L13.6544 19.1182H13.6514L19.2969 21.9043H19.2999L36.2365 13.4574L31.4485 11.0924L30.591 10.6682L30.5788 10.6621Z" fill="#DE0A1D"/>
<path fill-rule="evenodd" clip-rule="evenodd" d="M16.0863 18.0499C19.1562 19.3255 21.8508 18.9532 23.9473 17.0917C23.6391 16.8689 23.1234 16.3532 22.8151 16.1304C21.033 17.8821 19.022 18.294 16.8187 16.4814C14.1088 13.8722 15.836 10.1309 17.7891 9.4321C19.9558 8.54713 21.7226 9.19712 22.4611 11.1319H23.5506L23.5079 8.27553C23.1783 8.28774 22.8487 8.29994 22.5191 8.31215C22.3849 8.54713 22.2475 8.7821 22.1133 9.01708C19.2295 7.57976 15.5828 8.05276 13.5992 10.784C12.5861 11.9405 11.994 16.1701 16.0863 18.0469" fill="white"/>
<path d="M19.547 18.886C18.4423 18.886 17.2736 18.6388 16.0529 18.1323C13.8862 17.1405 13.1386 15.5628 12.8914 14.4123C12.5618 12.8773 12.9769 11.3729 13.5353 10.7321C15.3968 8.16563 18.9825 7.40272 22.0799 8.90717L22.4705 8.22971L23.5935 8.19004L23.6362 11.2173H22.4003L22.3789 11.1654C22.0494 10.3018 21.494 9.67924 20.7799 9.36797C19.9559 9.01093 18.9336 9.05975 17.8198 9.51445C16.8006 9.88064 15.8912 11.0708 15.6013 12.4135C15.4151 13.2741 15.3358 14.9403 16.8768 16.4233C18.8696 18.0621 20.8501 17.9461 22.7543 16.0724L22.8062 16.0205L22.8642 16.0633C23.0228 16.1762 23.2334 16.3654 23.4379 16.5485C23.6393 16.7285 23.8468 16.9147 23.9963 17.0215L24.0818 17.0856L24.0024 17.1557C22.7146 18.3001 21.2071 18.8799 19.547 18.883V18.886ZM16.12 17.9736C19.071 19.2003 21.7289 18.8982 23.8102 17.1008C23.6667 16.9879 23.4928 16.8323 23.3249 16.6797C23.148 16.521 22.9679 16.3593 22.8245 16.2494C20.8623 18.1445 18.8238 18.2482 16.767 16.5546C15.1618 15.0104 15.2473 13.2771 15.4395 12.3799C15.7386 10.9823 16.6937 9.74027 17.7649 9.35576C18.9184 8.88581 19.9865 8.83699 20.8562 9.21234C21.6008 9.53581 22.1775 10.1705 22.5285 11.0494H23.4714L23.4318 8.37008L22.5803 8.4006L22.1562 9.13605L22.0829 9.09943C19.0435 7.58276 15.5097 8.31516 13.6757 10.8389C13.1416 11.4522 12.748 12.8957 13.0654 14.3726C13.3034 15.4834 14.0266 17.0062 16.1261 17.9705L16.12 17.9736Z" fill="#DE0A1D"/>
</svg>
