<svg width="899" height="115" viewBox="0 0 899 115" fill="none" xmlns="http://www.w3.org/2000/svg">
<path fill-rule="evenodd" clip-rule="evenodd" d="M99.1512 2.32223L53.8866 56.5818L99.1057 112.678H65.6722L31.3771 69.0199H26.4728V112.678H0V2.32223H26.4728V45.6705H30.6065L65.6811 2.32223H99.1512ZM31.0855 46.6629H25.4735V3.31463H0.999275V111.685H25.4735V68.0274H31.8649L66.16 111.685H97.0256L52.5978 56.5711L97.0256 3.31463H66.16L31.0855 46.6629ZM193.916 98.6117C184.502 108.934 169.977 115 149.585 115C129.193 115 114.668 108.934 105.255 98.6117C95.8567 88.3075 91.6871 73.9091 91.6871 57.5C91.6871 41.0909 95.8567 26.6925 105.255 16.3883C114.668 6.06644 129.193 0 149.585 0C169.977 0 184.502 6.06644 193.916 16.3883C203.313 26.6925 207.483 41.0909 207.483 57.5C207.483 73.9091 203.313 88.3075 193.916 98.6117ZM126.643 82.3725C131.629 88.0452 139.195 91.1862 149.585 91.1862C159.975 91.1862 167.541 88.0452 172.527 82.3725C177.534 76.6767 180.075 68.2766 180.075 57.5C180.075 46.7234 177.534 38.3233 172.527 32.6275C167.541 26.9549 159.975 23.8138 149.585 23.8138C139.195 23.8138 131.629 26.9549 126.643 32.6275C121.636 38.3233 119.095 46.7234 119.095 57.5C119.095 68.2766 121.636 76.6767 126.643 82.3725ZM324.832 41.6175H297.519L297.325 40.8742C295.736 34.7869 292.895 30.5719 288.687 27.8526C284.451 25.1152 278.707 23.8138 271.168 23.8138C261.579 23.8138 254.607 26.9012 250.004 32.5416C245.371 38.2183 243.017 46.6287 243.017 57.5C243.017 68.3713 245.371 76.7817 250.004 82.4584C254.607 88.0988 261.579 91.1862 271.168 91.1862C278.707 91.1862 284.451 89.8848 288.687 87.1474C292.895 84.4281 295.736 80.2131 297.325 74.1258L297.519 73.3825H324.832L324.694 74.4956C323.189 86.6912 318.299 96.8573 309.463 103.961C300.639 111.056 287.998 115 271.168 115C251.39 115 237.442 108.927 228.459 98.5941C219.498 88.2875 215.609 73.894 215.609 57.5C215.609 41.106 219.498 26.7125 228.459 16.4059C237.442 6.07341 251.39 0 271.168 0C287.998 0 300.639 3.94439 309.463 11.0388C318.299 18.1427 323.189 28.3088 324.694 40.5044L324.832 41.6175ZM323.572 75.3673C320.288 98.8015 304.066 114.008 271.168 114.008C232.041 114.008 216.608 90.0112 216.608 57.5C216.608 24.9888 232.041 0.992406 271.168 0.992406C304.066 0.992406 320.288 16.1985 323.572 39.6327C323.618 39.9619 323.661 40.2927 323.702 40.6251H298.293C295.019 28.0851 286.445 22.8214 271.168 22.8214C251.527 22.8214 242.018 35.5162 242.018 57.5C242.018 79.4838 251.527 92.1786 271.168 92.1786C286.445 92.1786 295.019 86.9149 298.293 74.3749H323.702C323.661 74.7073 323.618 75.0381 323.572 75.3673ZM327.219 24.6791V3.31463H415.296V24.6791H383.495V111.685H359.02V24.6791H327.219ZM358.021 25.6716H326.22V2.32223H416.295V25.6716H384.494V112.678H358.021V25.6716ZM426.406 112.678V2.32223H477.912C490.082 2.32223 499.487 5.50237 505.85 11.6401C512.217 17.7821 515.389 26.7424 515.389 37.9933C515.389 48.4072 512.248 57.3515 505.922 63.6943C499.593 70.0404 490.193 73.6643 477.912 73.6643H452.878V112.678H426.406ZM451.879 111.685H427.405V3.31463H477.912C501.919 3.31463 514.39 15.8547 514.39 37.9933C514.39 58.4289 502.075 72.6719 477.912 72.6719H451.879V111.685ZM452.878 25.6716V50.315H474.639C479.571 50.315 482.854 49.1829 484.912 47.1908C486.964 45.2042 487.981 42.1839 487.981 37.9933C487.981 33.8027 486.964 30.7824 484.912 28.7957C482.854 26.8037 479.571 25.6716 474.639 25.6716H452.878ZM624.279 98.6117C614.865 108.934 600.34 115 579.949 115C559.557 115 545.032 108.934 535.618 98.6117C526.22 88.3075 522.051 73.9091 522.051 57.5C522.051 41.0909 526.22 26.6925 535.618 16.3883C545.032 6.06644 559.557 0 579.949 0C600.34 0 614.865 6.06644 624.279 16.3883C633.677 26.6925 637.847 41.0909 637.847 57.5C637.847 73.9091 633.677 88.3075 624.279 98.6117ZM557.007 82.3725C561.993 88.0452 569.558 91.1862 579.949 91.1862C590.339 91.1862 597.904 88.0452 602.891 82.3725C607.897 76.6767 610.439 68.2766 610.439 57.5C610.439 46.7234 607.897 38.3233 602.891 32.6275C597.904 26.9549 590.339 23.8138 579.949 23.8138C569.558 23.8138 561.993 26.9549 557.007 32.6275C552 38.3233 549.459 46.7234 549.459 57.5C549.459 68.2766 552 76.6767 557.007 82.3725ZM650.493 112.678V2.32223H681.432L714.627 72.2036L747.82 2.32223H778.76V112.678H752.287V50.1829L722.744 112.678H706.509L676.966 50.1832V112.678H650.493ZM675.967 45.734L707.144 111.685H722.109L753.286 45.734V111.685H777.761V3.31463H748.454L714.627 74.5297L680.799 3.31463H651.492V111.685H675.967V45.734ZM870.04 112.678L863.96 94.4096H821.133L815.053 112.678H786.093L826.413 2.32223H858.68L899 112.678H870.04ZM820.41 93.4172H864.682L870.762 111.685H897.574L857.979 3.31463H827.114L787.518 111.685H814.331L820.41 93.4172ZM827.425 72.6719H857.667L842.546 27.9303L827.425 72.6719ZM828.815 71.6795H856.278L842.546 31.0491L828.815 71.6795ZM206.484 57.5C206.484 90.0112 189.96 114.008 149.585 114.008C109.21 114.008 92.6864 90.0112 92.6864 57.5C92.6864 24.9888 109.21 0.992406 149.585 0.992406C189.96 0.992406 206.484 24.9888 206.484 57.5ZM118.096 57.5C118.096 79.329 128.384 92.1786 149.585 92.1786C170.786 92.1786 181.074 79.329 181.074 57.5C181.074 35.671 170.786 22.8214 149.585 22.8214C128.384 22.8214 118.096 35.671 118.096 57.5ZM451.879 51.3074H474.639C484.771 51.3074 488.98 46.6629 488.98 37.9933C488.98 29.3236 484.771 24.6791 474.639 24.6791H451.879V51.3074ZM636.847 57.5C636.847 90.0112 620.323 114.008 579.949 114.008C539.574 114.008 523.05 90.0112 523.05 57.5C523.05 24.9888 539.574 0.992406 579.949 0.992406C620.323 0.992406 636.847 24.9888 636.847 57.5ZM548.46 57.5C548.46 79.329 558.748 92.1786 579.949 92.1786C601.149 92.1786 611.438 79.329 611.438 57.5C611.438 35.671 601.149 22.8214 579.949 22.8214C558.748 22.8214 548.46 35.671 548.46 57.5Z" fill="white"/>
</svg>
