<svg width="436" height="115" viewBox="0 0 436 115" fill="none" xmlns="http://www.w3.org/2000/svg">
<path fill-rule="evenodd" clip-rule="evenodd" d="M-363.849 2.32223L-409.113 56.5818L-363.894 112.678H-397.328L-431.623 69.0199H-436.527V112.678H-463V2.32223H-436.527V45.6705H-432.393L-397.319 2.32223H-363.849ZM-431.915 46.6629H-437.526V3.31463H-462.001V111.685H-437.526V68.0274H-431.135L-396.84 111.685H-365.974L-410.402 56.5711L-365.974 3.31463H-396.84L-431.915 46.6629ZM-269.084 98.6117C-278.498 108.934 -293.023 115 -313.415 115C-333.807 115 -348.332 108.934 -357.745 98.6117C-367.143 88.3075 -371.313 73.9091 -371.313 57.5C-371.313 41.0909 -367.143 26.6925 -357.745 16.3883C-348.332 6.06644 -333.807 0 -313.415 0C-293.023 0 -278.498 6.06644 -269.084 16.3883C-259.687 26.6925 -255.517 41.0909 -255.517 57.5C-255.517 73.9091 -259.687 88.3075 -269.084 98.6117ZM-336.357 82.3725C-331.371 88.0452 -323.805 91.1862 -313.415 91.1862C-303.025 91.1862 -295.459 88.0452 -290.473 82.3725C-285.466 76.6767 -282.925 68.2766 -282.925 57.5C-282.925 46.7234 -285.466 38.3233 -290.473 32.6275C-295.459 26.9549 -303.025 23.8138 -313.415 23.8138C-323.805 23.8138 -331.371 26.9549 -336.357 32.6275C-341.364 38.3233 -343.905 46.7234 -343.905 57.5C-343.905 68.2766 -341.364 76.6767 -336.357 82.3725ZM-138.168 41.6175H-165.481L-165.675 40.8742C-167.264 34.7869 -170.105 30.5719 -174.313 27.8526C-178.549 25.1152 -184.293 23.8138 -191.832 23.8138C-201.421 23.8138 -208.393 26.9012 -212.996 32.5416C-217.629 38.2183 -219.983 46.6287 -219.983 57.5C-219.983 68.3713 -217.629 76.7817 -212.996 82.4584C-208.393 88.0988 -201.421 91.1862 -191.832 91.1862C-184.293 91.1862 -178.549 89.8848 -174.313 87.1474C-170.105 84.4281 -167.264 80.2131 -165.675 74.1258L-165.481 73.3825H-138.168L-138.306 74.4956C-139.811 86.6912 -144.701 96.8573 -153.537 103.961C-162.361 111.056 -175.002 115 -191.832 115C-211.61 115 -225.558 108.927 -234.541 98.5941C-243.502 88.2875 -247.391 73.894 -247.391 57.5C-247.391 41.106 -243.502 26.7125 -234.541 16.4059C-225.558 6.07341 -211.61 0 -191.832 0C-175.002 0 -162.361 3.94439 -153.537 11.0388C-144.701 18.1427 -139.811 28.3088 -138.306 40.5044L-138.168 41.6175ZM-139.428 75.3673C-142.712 98.8015 -158.934 114.008 -191.832 114.008C-230.959 114.008 -246.392 90.0112 -246.392 57.5C-246.392 24.9888 -230.959 0.992406 -191.832 0.992406C-158.934 0.992406 -142.712 16.1985 -139.428 39.6327C-139.382 39.9619 -139.339 40.2927 -139.298 40.6251H-164.707C-167.981 28.0851 -176.555 22.8214 -191.832 22.8214C-211.473 22.8214 -220.982 35.5162 -220.982 57.5C-220.982 79.4838 -211.473 92.1786 -191.832 92.1786C-176.555 92.1786 -167.981 86.9149 -164.707 74.3749H-139.298C-139.339 74.7073 -139.382 75.0381 -139.428 75.3673ZM-135.781 24.6791V3.31463H-47.7044V24.6791H-79.5053V111.685H-103.98V24.6791H-135.781ZM-104.979 25.6716H-136.78V2.32223H-46.7052V25.6716H-78.5061V112.678H-104.979V25.6716ZM-36.5945 112.678V2.32223H14.9122C27.0824 2.32223 36.4871 5.50237 42.8497 11.6401C49.2167 17.7821 52.389 26.7424 52.389 37.9933C52.389 48.4072 49.2479 57.3515 42.9218 63.6943C36.5926 70.0404 27.1928 73.6643 14.9122 73.6643H-10.1217V112.678H-36.5945ZM-11.1209 111.685H-35.5952V3.31463H14.9122C38.9188 3.31463 51.3897 15.8547 51.3897 37.9933C51.3897 58.4289 39.0746 72.6719 14.9122 72.6719H-11.1209V111.685ZM-10.1217 25.6716V50.315H11.6385C16.5711 50.315 19.8539 49.1829 21.9116 47.1908C23.9637 45.2042 24.9809 42.1839 24.9809 37.9933C24.9809 33.8027 23.9637 30.7824 21.9116 28.7957C19.8539 26.8037 16.5711 25.6716 11.6385 25.6716H-10.1217ZM161.279 98.6117C151.865 108.934 137.34 115 116.949 115C96.557 115 82.0321 108.934 72.6182 98.6117C63.2203 88.3075 59.0507 73.9091 59.0507 57.5C59.0507 41.0909 63.2203 26.6925 72.6182 16.3883C82.0321 6.06644 96.557 0 116.949 0C137.34 0 151.865 6.06644 161.279 16.3883C170.677 26.6925 174.847 41.0909 174.847 57.5C174.847 73.9091 170.677 88.3075 161.279 98.6117ZM94.0067 82.3725C98.993 88.0452 106.558 91.1862 116.949 91.1862C127.339 91.1862 134.904 88.0452 139.891 82.3725C144.897 76.6767 147.439 68.2766 147.439 57.5C147.439 46.7234 144.897 38.3233 139.891 32.6275C134.904 26.9549 127.339 23.8138 116.949 23.8138C106.558 23.8138 98.993 26.9549 94.0067 32.6275C89 38.3233 86.4589 46.7234 86.4589 57.5C86.4589 68.2766 89 76.6767 94.0067 82.3725ZM187.493 112.678V2.32223H218.432L251.627 72.2036L284.82 2.32223H315.76V112.678H289.287V50.1829L259.744 112.678H243.509L213.966 50.1832V112.678H187.493ZM212.967 45.734L244.144 111.685H259.109L290.286 45.734V111.685H314.761V3.31463H285.454L251.627 74.5297L217.799 3.31463H188.492V111.685H212.967V45.734ZM407.04 112.678L400.96 94.4096H358.133L352.053 112.678H323.093L363.413 2.32223H395.68L436 112.678H407.04ZM357.41 93.4172H401.682L407.762 111.685H434.574L394.979 3.31463H364.114L324.518 111.685H351.331L357.41 93.4172ZM364.425 72.6719H394.667L379.546 27.9303L364.425 72.6719ZM365.815 71.6795H393.278L379.546 31.0491L365.815 71.6795ZM-256.516 57.5C-256.516 90.0112 -273.04 114.008 -313.415 114.008C-353.79 114.008 -370.314 90.0112 -370.314 57.5C-370.314 24.9888 -353.79 0.992406 -313.415 0.992406C-273.04 0.992406 -256.516 24.9888 -256.516 57.5ZM-344.904 57.5C-344.904 79.329 -334.616 92.1786 -313.415 92.1786C-292.214 92.1786 -281.926 79.329 -281.926 57.5C-281.926 35.671 -292.214 22.8214 -313.415 22.8214C-334.616 22.8214 -344.904 35.671 -344.904 57.5ZM-11.1209 51.3074H11.6385C21.7712 51.3074 25.9801 46.6629 25.9801 37.9933C25.9801 29.3236 21.7712 24.6791 11.6385 24.6791H-11.1209V51.3074ZM173.847 57.5C173.847 90.0112 157.323 114.008 116.949 114.008C76.574 114.008 60.05 90.0112 60.05 57.5C60.05 24.9888 76.574 0.992406 116.949 0.992406C157.323 0.992406 173.847 24.9888 173.847 57.5ZM85.4596 57.5C85.4596 79.329 95.748 92.1786 116.949 92.1786C138.149 92.1786 148.438 79.329 148.438 57.5C148.438 35.671 138.149 22.8214 116.949 22.8214C95.748 22.8214 85.4596 35.671 85.4596 57.5Z" fill="white"/>
</svg>
