<svg width="11" height="17" viewBox="0 0 11 17" fill="none" xmlns="http://www.w3.org/2000/svg">
<path fill-rule="evenodd" clip-rule="evenodd" d="M9.47943 4.85036C9.47943 7.02485 7.63378 8.79123 5.3735 8.79123C3.11257 8.79123 1.26691 7.02485 1.26691 4.85036C1.26691 2.66676 3.11257 0.900391 5.3735 0.900391C7.63378 0.900391 9.47943 2.66676 9.47943 4.85036ZM7.39007 4.85036C7.39007 3.77286 6.48414 2.90137 5.3735 2.90137C4.2622 2.90137 3.35627 3.77221 3.35692 4.85036C3.35692 5.91876 4.26285 6.79025 5.3735 6.79025C6.48414 6.79025 7.39007 5.91876 7.39007 4.85036ZM1.72956 11.0681C0.697548 10.4286 0.245232 10.0543 0.643608 9.27119C0.878215 8.82667 1.5203 8.45169 2.37099 9.09767C2.37099 9.09767 3.51998 9.97826 5.37473 9.97826C7.22884 9.97826 8.37847 9.09767 8.37847 9.09767C9.22982 8.45494 9.8693 8.82667 10.1065 9.27119C10.499 10.0543 10.0467 10.428 9.01471 11.0707L9.01536 11.0714C8.14842 11.6017 6.95459 11.8116 6.16629 11.8909C6.05698 11.7855 7.0102 12.6997 7.88418 13.5379C8.57422 14.1997 9.21487 14.8141 9.24411 14.842C10.1273 15.7128 8.69042 17.0743 7.79748 16.2333C7.20282 15.6521 6.33511 14.8173 5.42648 13.9432L5.38188 13.9003L2.96628 16.2301C2.07399 17.0678 0.636459 15.6946 1.52939 14.8387C4.19141 12.2782 4.58642 11.8981 4.59739 11.8876C4.59165 11.8931 4.48615 11.9946 4.59748 11.8876C4.59745 11.8876 4.59742 11.8876 4.59739 11.8876C3.81883 11.8083 2.60686 11.6101 1.72956 11.0681Z" fill="white"/>
</svg>
