<svg width="211" height="25" viewBox="0 0 211 25" fill="none" xmlns="http://www.w3.org/2000/svg">
<path d="M41.1333 4.63147C44.0551 4.63147 46.4407 5.81339 47.4449 6.69462L45.7636 8.58653C44.4522 7.58904 42.8124 7.02828 41.1106 6.99532C37.439 6.99532 35.1443 9.3174 35.1443 12.4998C35.1443 15.6823 37.3209 18.0002 41.156 18.0002C43.0077 17.9685 44.7839 17.3199 46.1544 16.1751L47.7448 18.1296C46.7406 19.0986 44.2368 20.3682 41.1515 20.3682C35.7487 20.3682 32.4043 17.0271 32.4043 12.4998C32.4043 7.9726 35.8259 4.63147 41.1333 4.63147Z" fill="#0C0C0C"/>
<path d="M57.8209 4.63147C62.8193 4.63147 66.4545 7.9726 66.4545 12.4998C66.4545 17.0271 62.8193 20.3682 57.8209 20.3682C52.8226 20.3682 49.1874 17.0271 49.1874 12.4998C49.1874 7.9726 52.818 4.63147 57.8209 4.63147ZM57.8209 17.996C61.2107 17.996 63.7281 15.653 63.7281 12.4957C63.7281 9.33829 61.2244 6.99114 57.8209 6.99114C54.4175 6.99114 51.9138 9.33411 51.9138 12.4957C51.9138 15.6572 54.4311 18.0002 57.8209 18.0002V17.996Z" fill="#0C0C0C"/>
<path d="M83.6652 15.6573C83.6652 17.875 82.1202 20.0217 78.1215 20.0217H69.4016V4.98657H77.6081C80.9297 4.98657 82.8473 6.87431 82.8473 9.00428C82.8473 10.2071 82.2384 11.3055 80.7888 12.1867C82.2475 12.6294 83.6652 13.5942 83.6652 15.6573ZM72.0871 7.34207V11.3389H77.2809C79.1303 11.3389 80.0891 10.3908 80.0891 9.27575C80.0891 8.24417 79.2712 7.36295 77.6308 7.36295L72.0871 7.34207ZM78.2851 17.6578C80.18 17.6578 80.907 16.6889 80.907 15.6364C80.907 14.5004 80.0391 13.5733 78.3351 13.5733H72.0871V17.6578H78.2851Z" fill="#0C0C0C"/>
<path d="M94.4191 12.262L101.689 20.0218H98.1088L92.0335 13.4439H88.9254V20.0218H86.2354V4.98669H88.9254V11.1887H92.0335L97.9406 4.97833H101.517L94.4191 12.262Z" fill="#0C0C0C"/>
<path d="M109.964 4.63147C114.963 4.63147 118.598 7.9726 118.598 12.4998C118.598 17.0271 114.963 20.3682 109.964 20.3682C104.966 20.3682 101.331 17.0271 101.331 12.4998C101.331 7.9726 104.966 4.63147 109.964 4.63147ZM109.964 17.996C113.354 17.996 115.872 15.653 115.872 12.4957C115.872 9.33829 113.368 6.99114 109.964 6.99114C106.561 6.99114 104.057 9.33411 104.057 12.4957C104.057 15.6572 106.584 18.0002 109.964 18.0002V17.996Z" fill="#0C0C0C"/>
<path d="M136.725 4.97833H139.324V20.0134H136.634V8.84569L131.254 15.4528H129.618L124.238 8.85404V20.0218H121.548V4.98669H124.147L130.436 12.7005L136.725 4.97833Z" fill="#0C0C0C"/>
<path d="M151.647 11.1217C155.246 11.1217 157.213 13.0596 157.213 15.5529C157.213 18.0462 155.246 20.0217 151.833 20.0217H142.945V4.98657H155.691V7.35042H145.635V11.1301L151.647 11.1217ZM151.715 17.6578C153.587 17.6578 154.442 16.7139 154.442 15.5696C154.442 14.4253 153.601 13.4814 151.715 13.4814H145.635V17.6578H151.715Z" fill="#0C0C0C"/>
<path d="M172.155 20.0217L170.378 16.2629H162.653L160.872 20.0217H157.927L165.039 4.98657H168.006L175.117 20.0217H172.155ZM163.689 14.0034H169.328L166.52 8.00612L163.689 14.0034Z" fill="#0C0C0C"/>
<path d="M189.247 4.97833H191.937V20.0134H189.247V13.5734H179.778V20.0218H177.088V4.98669H179.778V11.2095H189.247V4.97833Z" fill="#0C0C0C"/>
<path d="M203.748 12.262L211.018 20.0218H207.437L201.362 13.4439H198.254V20.0218H195.564V4.98669H198.254V11.1887H201.362L207.269 4.97833H210.841L203.748 12.262Z" fill="#0C0C0C"/>
<path d="M0 12.5C0 15.8152 1.43287 18.9946 3.98339 21.3388C6.53392 23.683 9.99317 25 13.6002 25C13.7819 25 13.9637 25 14.1454 25V20.2472H13.6002C11.3979 20.2003 9.30307 19.3632 7.76361 17.915C6.22414 16.4669 5.36226 14.5226 5.36226 12.4979C5.36226 10.4733 6.22414 8.52897 7.76361 7.08081C9.30307 5.63265 11.3979 4.79557 13.6002 4.74858H14.1454V0C13.9637 0 13.7819 0 13.6002 0C9.99317 0 6.53392 1.31696 3.98339 3.66117C1.43287 6.00537 0 9.18479 0 12.5" fill="#0C0C0C"/>
<path d="M16.3162 0.25061V6.74911H13.5899C12.7543 6.72841 11.9227 6.86179 11.1441 7.14139C10.3655 7.42098 9.65582 7.84112 9.05685 8.377C8.45789 8.91288 7.98181 9.55362 7.65674 10.2614C7.33167 10.9692 7.16418 11.7297 7.16418 12.4979C7.16418 13.2662 7.33167 14.0267 7.65674 14.7345C7.98181 15.4423 8.45789 16.083 9.05685 16.6189C9.65582 17.1548 10.3655 17.5749 11.1441 17.8545C11.9227 18.1341 12.7543 18.2675 13.5899 18.2468H16.3162V24.7494C19.39 24.1751 22.1532 22.6419 24.138 20.4095C26.1227 18.1772 27.2069 15.3829 27.2069 12.5C27.2069 9.61714 26.1227 6.82287 24.138 4.59052C22.1532 2.35816 19.39 0.824961 16.3162 0.25061Z" fill="#0C0C0C"/>
</svg>
