<svg width="734" height="113" viewBox="0 0 734 113" fill="none" xmlns="http://www.w3.org/2000/svg">
<path d="M107.029 39.6274C104.069 15.6342 87.8668 0 54.5272 0C15.4234 0 0 23.9932 0 56.5C0 89.0068 15.4234 113 54.5272 113C87.8668 113 104.069 97.3657 107.029 73.3726H81.6351C78.3634 85.9109 69.7949 91.174 54.5272 91.174C34.8974 91.174 25.3941 78.4808 25.3941 56.5C25.3941 34.5192 34.8974 21.826 54.5272 21.826C69.7949 21.826 78.3634 27.089 81.6351 39.6274H107.029Z" fill="white"/>
<path d="M216.432 2.32191H119.841V110.678H144.3V23.6836H191.972V110.678H216.432V2.32191Z" fill="white"/>
<path d="M309.462 110.678H336.258L296.687 2.32191H265.84L226.269 110.678H253.065L259.141 92.4123H303.386L309.462 110.678ZM266.151 71.6699L281.263 26.9342L296.375 71.6699H266.151Z" fill="white"/>
<path d="M346.074 110.678H370.533V71.6699H396.551C420.698 71.6699 433.006 57.4288 433.006 36.9959C433.006 14.8603 420.543 2.32191 396.551 2.32191H346.074V110.678ZM370.533 50.3082V23.6836H393.279C403.405 23.6836 407.612 28.3274 407.612 36.9959C407.612 45.6644 403.405 50.3082 393.279 50.3082H370.533Z" fill="white"/>
<path d="M470.95 23.6836V110.678H495.409V23.6836H527.191V2.32191H439.168V23.6836H470.95Z" fill="white"/>
<path d="M601.42 110.678H628.216L588.645 2.32191H557.798L518.227 110.678H545.023L551.099 92.4123H595.344L601.42 110.678ZM558.109 71.6699L573.221 26.9342L588.333 71.6699H558.109Z" fill="white"/>
<path d="M734 2.32191H703.153L668.1 45.6644H662.491V2.32191H638.032V110.678H662.491V67.026H668.879L703.153 110.678H734L689.599 55.5712L734 2.32191Z" fill="white"/>
</svg>
