<svg width="38" height="47" viewBox="0 0 38 47" fill="none" xmlns="http://www.w3.org/2000/svg">
<path d="M37.9425 3.42651C37.9425 3.21289 37.7929 3.02674 37.5824 2.98402L30.9237 1.55891C30.6887 1.51008 30.4568 1.64741 30.3897 1.87628L28.9707 6.75889C28.9218 6.92368 28.7631 7.03049 28.5922 7.00913L24.8876 6.58495C24.7472 6.56969 24.6282 6.46899 24.5885 6.33166L22.9437 0.60985C22.8887 0.414545 22.7087 0.280273 22.5042 0.280273L15.989 0.298584C15.7845 0.298584 15.6075 0.435907 15.5526 0.631212L13.9383 6.36218C13.8986 6.4995 13.7827 6.60021 13.6423 6.61547L9.94066 7.05795C9.76977 7.07931 9.61108 6.97251 9.56226 6.80772L8.11578 1.93426C8.04865 1.70539 7.81367 1.56806 7.58175 1.61994L0.932237 3.08167C0.721674 3.12745 0.575195 3.3136 0.575195 3.52721L0.599609 13.5854C0.599609 13.7593 0.660642 13.9272 0.773552 14.0584L4.67659 18.6297C4.93293 18.9319 5.07636 19.3133 5.08246 19.71C5.10687 22.0842 5.17401 22.9234 5.18927 28.8344C5.22284 41.2088 18.3693 45.716 19.3702 46.0395C20.3681 45.7099 33.4932 41.1355 33.4596 28.7581C33.4444 22.8441 33.5054 22.0049 33.5176 19.6337C33.5176 19.237 33.661 18.8556 33.9174 18.5504L37.796 13.9577C37.9089 13.8265 37.9699 13.6556 37.9699 13.4847L37.9394 3.42651H37.9425Z" fill="white"/>
<path d="M32.8586 28.7613C32.8769 36.2378 26.8316 42.3167 19.3551 42.3381C11.8786 42.3564 5.79972 36.3111 5.77836 28.8346C5.76005 21.3581 11.8053 15.2792 19.2818 15.2579C26.7583 15.2395 32.8372 21.2848 32.8586 28.7613Z" fill="white"/>
<path d="M19.355 42.4571C11.8235 42.4784 5.67755 36.366 5.65924 28.8315C5.63787 21.3001 11.7503 15.1541 19.2848 15.1358C26.8162 15.1144 32.9622 21.2269 32.9805 28.7613C33.0019 36.2928 26.8895 42.4388 19.355 42.4571ZM19.2848 15.3769C11.8846 15.3952 5.88201 21.4313 5.90031 28.8315C5.91862 36.2317 11.9548 42.2343 19.355 42.216C26.7552 42.1977 32.7577 36.1616 32.7394 28.7613C32.7211 21.3611 26.685 15.3586 19.2848 15.3769Z" fill="#010101"/>
<path d="M8.94536 20.1123C6.97095 22.4712 5.78387 25.5137 5.79302 28.8339C5.79302 29.3221 5.82049 29.8043 5.87236 30.2803L9.83949 25.889L8.94536 20.1123Z" fill="#020303"/>
<path d="M7.7832 35.8682C9.68132 38.9625 12.7879 41.2329 16.4407 42.0294L13.5447 36.866L7.7832 35.8682Z" fill="#020303"/>
<path d="M32.8 30.2073C32.8488 29.7313 32.8733 29.2491 32.8733 28.7609C32.8641 25.4438 31.6618 22.4074 29.6751 20.0576L28.8115 25.8405L32.8 30.2104V30.2073Z" fill="#020303"/>
<path d="M30.918 35.8076L25.1596 36.836L22.291 42.0146C25.9408 41.1999 29.0351 38.9111 30.918 35.8076Z" fill="#020303"/>
<path d="M9.25192 25.553L9.18359 25.7715L14.2629 27.3603L14.3313 27.1419L9.25192 25.553Z" fill="#010101"/>
<path d="M16.0753 33.1044L13.0293 37.3076L13.2146 37.4419L16.2606 33.2387L16.0753 33.1044Z" fill="#010101"/>
<path d="M29.3708 25.5037L24.2998 27.1191L24.3693 27.3372L29.4402 25.7218L29.3708 25.5037Z" fill="#010101"/>
<path d="M22.4778 32.9177L22.293 33.0527L25.4703 37.4019L25.6551 37.2669L22.4778 32.9177Z" fill="#010101"/>
<path d="M15.4704 34.2667L13.0596 26.9214L19.3032 22.3623L25.5682 26.8879L23.1971 34.2454L15.4704 34.2667Z" fill="#020303"/>
<path d="M19.3031 22.5173L25.4186 26.9361L23.1054 34.1196L15.5587 34.141L13.209 26.9697L19.3031 22.5173ZM19.3031 22.2061L19.1566 22.3129L13.0625 26.7652L12.916 26.872L12.974 27.0459L15.3238 34.2173L15.3817 34.3912H15.5648L23.1115 34.3699H23.2946L23.3496 34.1959L25.6627 27.0124L25.7176 26.8384L25.5681 26.7316L19.4526 22.3129L19.3031 22.2061Z" fill="#010101"/>
<path d="M15.5587 34.1413L13.209 26.9699L19.3031 22.5176L25.4186 26.9363L23.1054 34.1199L15.5587 34.1413Z" fill="#C7C6C6"/>
</svg>
