<svg width="312" height="155" viewBox="0 0 312 155" fill="none" xmlns="http://www.w3.org/2000/svg">
<path d="M387.936 196.901C377.366 134.927 343.304 80.735 292.044 44.3349C240.718 7.97448 178.297 -6.22062 116.29 4.3622C54.2822 14.945 0.103643 49.04 -36.2567 100.366C-72.6171 151.692 -86.8122 214.112 -76.2294 276.119C-65.6466 338.127 -31.5516 392.306 19.7742 428.666C71.0999 465.026 133.52 479.222 195.528 468.639C257.535 458.056 311.714 423.961 348.074 372.635C384.36 321.293 398.522 258.886 387.936 196.901ZM382.506 265.457C377.965 301.432 364.676 336.209 344.066 366.045L336.87 376.463L330.88 300.551L384.002 253.624L382.506 265.457ZM352.897 120.803C374.403 157.583 385.247 199.554 384.26 242.153L384.216 244.119L326.416 295.158L233.288 266.894L205.989 171.879L259.143 96.8492L351.934 119.153L352.905 120.809L352.897 120.803ZM226.447 268.506L155.155 329.717L68.219 268.13L102.353 180.557L199.564 174.877L226.453 268.498L226.447 268.506ZM222.51 17.9683C269.188 32.1387 310.824 61.5735 339.745 100.861L347.055 110.782L259.836 89.8157L210.687 14.3839L222.51 17.9683ZM74.851 22.9477C114.571 7.94818 157.608 4.23276 199.306 12.216L201.182 12.5772L253.417 92.8051L200.269 167.827L101.579 173.588L44.0261 95.1069L73.0054 23.6501L74.8452 22.9559L74.851 22.9477ZM-28.7304 101.972C-7.41881 72.6329 20.9823 48.5612 53.4142 32.345L64.0813 27.0095L37.4301 92.689L-36.1711 112.216L-28.7304 101.972ZM-72.3096 228.307C-71.0544 191.194 -60.5765 154.572 -41.9985 122.414L-41.062 120.798L38.6159 99.5954L95.9155 177.725L61.3067 266.591L-11.259 289.915L-72.3774 230.306L-72.3072 228.321L-72.3096 228.307ZM-27.4961 372.776C-53.7132 337.353 -69.0958 295.389 -71.9802 251.421L-72.7523 239.71L-15.7706 295.298L-19.99 382.922L-27.4961 372.776ZM71.9791 448.995C54.9389 442.291 38.6832 433.459 23.6877 422.848C10.7135 413.656 -1.2988 403.125 -12.053 391.474L-14.0609 389.292L-13.1839 387.327L-8.82599 296.48L63.3589 273.278L151.886 335.992L154.297 412.199L73.7652 449.708L71.9652 448.997L71.9791 448.995ZM217.441 456.441C177.209 467.684 134.67 467.72 94.4085 456.551L82.6396 453.287L157.99 418.247L228.74 453.294L217.435 456.45L217.441 456.441ZM329.167 385.381C304.989 413.56 273.916 435.591 239.325 449.077L237.476 449.801L161.3 412.087L158.88 335.702L231.22 273.602L323.923 301.738L330.381 383.961L329.167 385.381Z" fill="white" fill-opacity="0.02"/>
</svg>
