<svg width="18" height="11" viewBox="0 0 18 11" fill="none" xmlns="http://www.w3.org/2000/svg">
<path fill-rule="evenodd" clip-rule="evenodd" d="M16.0639 7.7477C16.4757 8.16739 17.3691 8.87162 17.2069 9.58858C17.0575 10.2467 16.0751 10.0067 15.1212 10.0448C14.0323 10.0909 13.3869 10.1148 12.7319 9.58858C12.4235 9.339 12.2423 9.04331 11.9466 8.71265C11.678 8.41379 11.3393 7.87806 10.8783 7.89873C10.0501 7.94006 10.3092 9.09418 10.0151 9.88109C5.41135 10.606 3.56252 7.76201 1.93149 5.00229C1.14141 3.66535 0 0.794349 0 0.794349L3.25571 0.783221C3.25571 0.783221 4.30014 2.68291 4.57675 3.17254C4.81203 3.58904 5.07115 3.9197 5.33822 4.29169C5.56237 4.6001 5.91687 5.20418 6.30476 5.1549C6.93587 5.07383 7.05033 2.62569 6.65926 1.8054C6.50347 1.47315 6.12989 1.3571 5.74359 1.24423C5.87395 0.420769 9.39514 0.249081 9.96425 0.888141C10.7909 1.81653 9.39196 4.40138 10.5238 5.1549C12.1135 4.3219 13.4711 0.834091 13.4711 0.834091L17.2832 0.857937C17.2832 0.857937 16.6871 2.74332 16.0623 3.57951C15.6983 4.06913 14.4901 5.15967 14.5378 5.96883C14.576 6.60948 15.5584 7.23264 16.0639 7.7477Z" fill="white"/>
</svg>
